solid limitswitchmount
facet normal 1.0 0.0 -0.0
outer loop
vertex 33.0 4.0 0.0
vertex 33.0 0.0 15.0
vertex 33.0 0.0 0.0
endloop
endfacet
facet normal 1.0 0.0 -0.0
outer loop
vertex 33.0 0.0 15.0
vertex 33.0 4.0 0.0
vertex 33.0 4.0 15.0
endloop
endfacet
facet normal 0.0 0.0 1.0
outer loop
vertex 33.0 0.0 15.0
vertex 0.0 4.0 15.0
vertex 0.0 0.0 15.0
endloop
endfacet
facet normal 0.0 0.0 1.0
outer loop
vertex 0.0 4.0 15.0
vertex 33.0 0.0 15.0
vertex 33.0 4.0 15.0
endloop
endfacet
facet normal -1.0 -0.0 -0.0
outer loop
vertex 0.0 4.0 15.0
vertex 0.0 0.0 0.0
vertex 0.0 0.0 15.0
endloop
endfacet
facet normal -1.0 -0.0 -0.0
outer loop
vertex 0.0 0.0 0.0
vertex 0.0 4.0 15.0
vertex 0.0 4.0 0.0
endloop
endfacet
facet normal 0.0 0.0 -1.0
outer loop
vertex 33.0 4.0 0.0
vertex 0.0 0.0 0.0
vertex 0.0 4.0 0.0
endloop
endfacet
facet normal 0.0 0.0 -1.0
outer loop
vertex 0.0 0.0 0.0
vertex 33.0 4.0 0.0
vertex 33.0 0.0 0.0
endloop
endfacet
facet normal -0.923879532511287 0.0 0.38268343236509
outer loop
vertex 7.43497079150066 4.0 6.72354286469244
vertex 7.13526952398677 0.0 6.0
vertex 7.43497079150066 0.0 6.72354286469244
endloop
endfacet
facet normal -0.923879532511287 0.0 0.38268343236509
outer loop
vertex 7.13526952398677 0.0 6.0
vertex 7.43497079150066 4.0 6.72354286469244
vertex 7.13526952398677 4.0 6.0
endloop
endfacet
facet normal -0.793353340291235 0.0 0.608761429008721
outer loop
vertex 7.13526952398677 4.0 6.0
vertex 6.6585136561931 0.0 5.37867965644036
vertex 7.13526952398677 0.0 6.0
endloop
endfacet
facet normal -0.793353340291235 0.0 0.608761429008721
outer loop
vertex 6.6585136561931 0.0 5.37867965644036
vertex 7.13526952398677 4.0 6.0
vertex 6.6585136561931 4.0 5.37867965644036
endloop
endfacet
facet normal -0.608761429008721 0.0 0.793353340291235
outer loop
vertex 6.6585136561931 0.0 5.37867965644036
vertex 6.03719331263346 4.0 4.90192378864668
vertex 6.03719331263346 0.0 4.90192378864668
endloop
endfacet
facet normal -0.608761429008721 0.0 0.793353340291235
outer loop
vertex 6.03719331263346 4.0 4.90192378864668
vertex 6.6585136561931 0.0 5.37867965644036
vertex 6.6585136561931 4.0 5.37867965644036
endloop
endfacet
facet normal -0.38268343236509 0.0 0.923879532511287
outer loop
vertex 6.03719331263346 0.0 4.90192378864668
vertex 5.31365044794102 4.0 4.6022225211328
vertex 5.31365044794102 0.0 4.6022225211328
endloop
endfacet
facet normal -0.38268343236509 0.0 0.923879532511287
outer loop
vertex 5.31365044794102 4.0 4.6022225211328
vertex 6.03719331263346 0.0 4.90192378864668
vertex 6.03719331263346 4.0 4.90192378864668
endloop
endfacet
facet normal -0.130526192220052 0.0 0.99144486137381
outer loop
vertex 5.31365044794102 0.0 4.6022225211328
vertex 4.53719331263346 4.0 4.5
vertex 4.53719331263346 0.0 4.5
endloop
endfacet
facet normal -0.130526192220052 0.0 0.99144486137381
outer loop
vertex 4.53719331263346 4.0 4.5
vertex 5.31365044794102 0.0 4.6022225211328
vertex 5.31365044794102 4.0 4.6022225211328
endloop
endfacet
facet normal 0.130526192220051 0.0 0.991444861373811
outer loop
vertex 4.53719331263346 0.0 4.5
vertex 3.7607361773259 4.0 4.6022225211328
vertex 3.7607361773259 0.0 4.6022225211328
endloop
endfacet
facet normal 0.130526192220051 0.0 0.991444861373811
outer loop
vertex 3.7607361773259 4.0 4.6022225211328
vertex 4.53719331263346 0.0 4.5
vertex 4.53719331263346 4.0 4.5
endloop
endfacet
facet normal 0.38268343236509 0.0 0.923879532511287
outer loop
vertex 3.7607361773259 0.0 4.6022225211328
vertex 3.03719331263346 4.0 4.90192378864668
vertex 3.03719331263346 0.0 4.90192378864668
endloop
endfacet
facet normal 0.38268343236509 0.0 0.923879532511287
outer loop
vertex 3.03719331263346 4.0 4.90192378864668
vertex 3.7607361773259 0.0 4.6022225211328
vertex 3.7607361773259 4.0 4.6022225211328
endloop
endfacet
facet normal 0.608761429008721 0.0 0.793353340291235
outer loop
vertex 3.03719331263346 0.0 4.90192378864668
vertex 2.41587296907382 4.0 5.37867965644036
vertex 2.41587296907382 0.0 5.37867965644036
endloop
endfacet
facet normal 0.608761429008721 0.0 0.793353340291235
outer loop
vertex 2.41587296907382 4.0 5.37867965644036
vertex 3.03719331263346 0.0 4.90192378864668
vertex 3.03719331263346 4.0 4.90192378864668
endloop
endfacet
facet normal 0.793353340291235 0.0 0.608761429008721
outer loop
vertex 2.41587296907382 4.0 5.37867965644036
vertex 1.93911710128014 0.0 6.0
vertex 2.41587296907382 0.0 5.37867965644036
endloop
endfacet
facet normal 0.793353340291235 0.0 0.608761429008721
outer loop
vertex 1.93911710128014 0.0 6.0
vertex 2.41587296907382 4.0 5.37867965644036
vertex 1.93911710128014 4.0 6.0
endloop
endfacet
facet normal 0.923879532511287 0.0 0.38268343236509
outer loop
vertex 1.93911710128014 4.0 6.0
vertex 1.63941583376625 0.0 6.72354286469244
vertex 1.93911710128014 0.0 6.0
endloop
endfacet
facet normal 0.923879532511287 0.0 0.38268343236509
outer loop
vertex 1.63941583376625 0.0 6.72354286469244
vertex 1.93911710128014 4.0 6.0
vertex 1.63941583376625 4.0 6.72354286469244
endloop
endfacet
facet normal 0.99144486137381 0.0 0.130526192220052
outer loop
vertex 1.63941583376625 4.0 6.72354286469244
vertex 1.53719331263346 0.0 7.5
vertex 1.63941583376625 0.0 6.72354286469244
endloop
endfacet
facet normal 0.99144486137381 0.0 0.130526192220052
outer loop
vertex 1.53719331263346 0.0 7.5
vertex 1.63941583376625 4.0 6.72354286469244
vertex 1.53719331263346 4.0 7.5
endloop
endfacet
facet normal 0.991444861373811 0.0 -0.130526192220051
outer loop
vertex 1.53719331263346 4.0 7.5
vertex 1.63941583376625 0.0 8.27645713530756
vertex 1.53719331263346 0.0 7.5
endloop
endfacet
facet normal 0.991444861373811 0.0 -0.130526192220051
outer loop
vertex 1.63941583376625 0.0 8.27645713530756
vertex 1.53719331263346 4.0 7.5
vertex 1.63941583376625 4.0 8.27645713530756
endloop
endfacet
facet normal 0.923879532511287 0.0 -0.38268343236509
outer loop
vertex 1.63941583376625 4.0 8.27645713530756
vertex 1.93911710128014 0.0 9.0
vertex 1.63941583376625 0.0 8.27645713530756
endloop
endfacet
facet normal 0.923879532511287 0.0 -0.38268343236509
outer loop
vertex 1.93911710128014 0.0 9.0
vertex 1.63941583376625 4.0 8.27645713530756
vertex 1.93911710128014 4.0 9.0
endloop
endfacet
facet normal 0.793353340291235 0.0 -0.60876142900872
outer loop
vertex 1.93911710128014 4.0 9.0
vertex 2.41587296907381 0.0 9.62132034355964
vertex 1.93911710128014 0.0 9.0
endloop
endfacet
facet normal 0.793353340291235 0.0 -0.60876142900872
outer loop
vertex 2.41587296907381 0.0 9.62132034355964
vertex 1.93911710128014 4.0 9.0
vertex 2.41587296907381 4.0 9.62132034355964
endloop
endfacet
facet normal 0.608761429008721 0.0 -0.793353340291235
outer loop
vertex 3.03719331263346 4.0 10.0980762113533
vertex 2.41587296907381 0.0 9.62132034355964
vertex 2.41587296907381 4.0 9.62132034355964
endloop
endfacet
facet normal 0.608761429008721 0.0 -0.793353340291235
outer loop
vertex 2.41587296907381 0.0 9.62132034355964
vertex 3.03719331263346 4.0 10.0980762113533
vertex 3.03719331263346 0.0 10.0980762113533
endloop
endfacet
facet normal 0.38268343236509 0.0 -0.923879532511287
outer loop
vertex 3.76073617732589 4.0 10.3977774788672
vertex 3.03719331263346 0.0 10.0980762113533
vertex 3.03719331263346 4.0 10.0980762113533
endloop
endfacet
facet normal 0.38268343236509 0.0 -0.923879532511287
outer loop
vertex 3.03719331263346 0.0 10.0980762113533
vertex 3.76073617732589 4.0 10.3977774788672
vertex 3.76073617732589 0.0 10.3977774788672
endloop
endfacet
facet normal 0.130526192220053 0.0 -0.99144486137381
outer loop
vertex 4.53719331263346 4.0 10.5
vertex 3.76073617732589 0.0 10.3977774788672
vertex 3.76073617732589 4.0 10.3977774788672
endloop
endfacet
facet normal 0.130526192220053 0.0 -0.99144486137381
outer loop
vertex 3.76073617732589 0.0 10.3977774788672
vertex 4.53719331263346 4.0 10.5
vertex 4.53719331263346 0.0 10.5
endloop
endfacet
facet normal -0.130526192220052 -0.0 -0.99144486137381
outer loop
vertex 5.31365044794102 4.0 10.3977774788672
vertex 4.53719331263346 0.0 10.5
vertex 4.53719331263346 4.0 10.5
endloop
endfacet
facet normal -0.130526192220052 -0.0 -0.99144486137381
outer loop
vertex 4.53719331263346 0.0 10.5
vertex 5.31365044794102 4.0 10.3977774788672
vertex 5.31365044794102 0.0 10.3977774788672
endloop
endfacet
facet normal -0.382683432365088 -0.0 -0.923879532511287
outer loop
vertex 6.03719331263346 4.0 10.0980762113533
vertex 5.31365044794102 0.0 10.3977774788672
vertex 5.31365044794102 4.0 10.3977774788672
endloop
endfacet
facet normal -0.382683432365088 -0.0 -0.923879532511287
outer loop
vertex 5.31365044794102 0.0 10.3977774788672
vertex 6.03719331263346 4.0 10.0980762113533
vertex 6.03719331263346 0.0 10.0980762113533
endloop
endfacet
facet normal -0.608761429008722 -0.0 -0.793353340291235
outer loop
vertex 6.6585136561931 4.0 9.62132034355964
vertex 6.03719331263346 0.0 10.0980762113533
vertex 6.03719331263346 4.0 10.0980762113533
endloop
endfacet
facet normal -0.608761429008722 -0.0 -0.793353340291235
outer loop
vertex 6.03719331263346 0.0 10.0980762113533
vertex 6.6585136561931 4.0 9.62132034355964
vertex 6.6585136561931 0.0 9.62132034355964
endloop
endfacet
facet normal -0.793353340291235 -0.0 -0.608761429008721
outer loop
vertex 6.6585136561931 4.0 9.62132034355964
vertex 7.13526952398677 0.0 9.0
vertex 6.6585136561931 0.0 9.62132034355964
endloop
endfacet
facet normal -0.793353340291235 -0.0 -0.608761429008721
outer loop
vertex 7.13526952398677 0.0 9.0
vertex 6.6585136561931 4.0 9.62132034355964
vertex 7.13526952398677 4.0 9.0
endloop
endfacet
facet normal -0.923879532511286 -0.0 -0.382683432365091
outer loop
vertex 7.13526952398677 4.0 9.0
vertex 7.43497079150066 0.0 8.27645713530756
vertex 7.13526952398677 0.0 9.0
endloop
endfacet
facet normal -0.923879532511286 -0.0 -0.382683432365091
outer loop
vertex 7.43497079150066 0.0 8.27645713530756
vertex 7.13526952398677 4.0 9.0
vertex 7.43497079150066 4.0 8.27645713530756
endloop
endfacet
facet normal -0.99144486137381 -0.0 -0.130526192220051
outer loop
vertex 7.43497079150066 4.0 8.27645713530756
vertex 7.53719331263346 0.0 7.5
vertex 7.43497079150066 0.0 8.27645713530756
endloop
endfacet
facet normal -0.99144486137381 -0.0 -0.130526192220051
outer loop
vertex 7.53719331263346 0.0 7.5
vertex 7.43497079150066 4.0 8.27645713530756
vertex 7.53719331263346 4.0 7.5
endloop
endfacet
facet normal -0.99144486137381 0.0 0.130526192220052
outer loop
vertex 7.53719331263346 4.0 7.5
vertex 7.43497079150066 0.0 6.72354286469244
vertex 7.53719331263346 0.0 7.5
endloop
endfacet
facet normal -0.99144486137381 0.0 0.130526192220052
outer loop
vertex 7.43497079150066 0.0 6.72354286469244
vertex 7.53719331263346 4.0 7.5
vertex 7.43497079150066 4.0 6.72354286469244
endloop
endfacet
facet normal -1.0 0.0 0.0
outer loop
vertex 21.7272525395736 4.0 10.3481504378665
vertex 21.7272525395736 0.0 1.34815043786648
vertex 21.7272525395736 0.0 10.3481504378665
endloop
endfacet
facet normal -1.0 0.0 0.0
outer loop
vertex 21.7272525395736 0.0 1.34815043786648
vertex 21.7272525395736 4.0 10.3481504378665
vertex 21.7272525395736 4.0 1.34815043786648
endloop
endfacet
facet normal -0.0 -0.0 1.0
outer loop
vertex 21.7272525395736 0.0 1.34815043786648
vertex 18.8272525395736 4.0 1.34815043786648
vertex 18.8272525395736 0.0 1.34815043786648
endloop
endfacet
facet normal -0.0 -0.0 1.0
outer loop
vertex 18.8272525395736 4.0 1.34815043786648
vertex 21.7272525395736 0.0 1.34815043786648
vertex 21.7272525395736 4.0 1.34815043786648
endloop
endfacet
facet normal 1.0 -0.0 -0.0
outer loop
vertex 18.8272525395736 4.0 1.34815043786648
vertex 18.8272525395736 0.0 10.3481504378665
vertex 18.8272525395736 0.0 1.34815043786648
endloop
endfacet
facet normal 1.0 -0.0 -0.0
outer loop
vertex 18.8272525395736 0.0 10.3481504378665
vertex 18.8272525395736 4.0 1.34815043786648
vertex 18.8272525395736 4.0 10.3481504378665
endloop
endfacet
facet normal 0.0 0.0 -1.0
outer loop
vertex 21.7272525395736 4.0 10.3481504378665
vertex 18.8272525395736 0.0 10.3481504378665
vertex 18.8272525395736 4.0 10.3481504378665
endloop
endfacet
facet normal 0.0 0.0 -1.0
outer loop
vertex 18.8272525395736 0.0 10.3481504378665
vertex 21.7272525395736 4.0 10.3481504378665
vertex 21.7272525395736 0.0 10.3481504378665
endloop
endfacet
facet normal -1.0 -0.0 -0.0
outer loop
vertex 31.3272525395736 4.0 10.3481504378665
vertex 31.3272525395736 0.0 1.34815043786648
vertex 31.3272525395736 0.0 10.3481504378665
endloop
endfacet
facet normal -1.0 -0.0 -0.0
outer loop
vertex 31.3272525395736 0.0 1.34815043786648
vertex 31.3272525395736 4.0 10.3481504378665
vertex 31.3272525395736 4.0 1.34815043786648
endloop
endfacet
facet normal 0.0 0.0 1.0
outer loop
vertex 31.3272525395736 0.0 1.34815043786648
vertex 28.4272525395736 4.0 1.34815043786648
vertex 28.4272525395736 0.0 1.34815043786648
endloop
endfacet
facet normal 0.0 0.0 1.0
outer loop
vertex 28.4272525395736 4.0 1.34815043786648
vertex 31.3272525395736 0.0 1.34815043786648
vertex 31.3272525395736 4.0 1.34815043786648
endloop
endfacet
facet normal 1.0 0.0 0.0
outer loop
vertex 28.4272525395736 4.0 1.34815043786648
vertex 28.4272525395736 0.0 10.3481504378665
vertex 28.4272525395736 0.0 1.34815043786648
endloop
endfacet
facet normal 1.0 0.0 0.0
outer loop
vertex 28.4272525395736 0.0 10.3481504378665
vertex 28.4272525395736 4.0 1.34815043786648
vertex 28.4272525395736 4.0 10.3481504378665
endloop
endfacet
facet normal 0.0 0.0 -1.0
outer loop
vertex 31.3272525395736 4.0 10.3481504378665
vertex 28.4272525395736 0.0 10.3481504378665
vertex 28.4272525395736 4.0 10.3481504378665
endloop
endfacet
facet normal 0.0 0.0 -1.0
outer loop
vertex 28.4272525395736 0.0 10.3481504378665
vertex 31.3272525395736 4.0 10.3481504378665
vertex 31.3272525395736 0.0 10.3481504378665
endloop
endfacet
facet normal 0.0 -1.0 0.0
outer loop
vertex 33.0 0.0 0.0
vertex 31.3272525395736 0.0 1.34815043786648
vertex 0.0 0.0 0.0
endloop
endfacet
facet normal 0.0 -1.0 0.0
outer loop
vertex 31.3272525395736 0.0 1.34815043786648
vertex 33.0 0.0 0.0
vertex 33.0 0.0 15.0
endloop
endfacet
facet normal 0.0 -1.0 0.0
outer loop
vertex 31.3272525395736 0.0 1.34815043786648
vertex 33.0 0.0 15.0
vertex 31.3272525395736 0.0 10.3481504378665
endloop
endfacet
facet normal 0.0 -1.0 0.0
outer loop
vertex 31.3272525395736 0.0 10.3481504378665
vertex 33.0 0.0 15.0
vertex 28.4272525395736 0.0 10.3481504378665
endloop
endfacet
facet normal 0.0 -1.0 0.0
outer loop
vertex 28.4272525395736 0.0 10.3481504378665
vertex 33.0 0.0 15.0
vertex 21.7272525395736 0.0 10.3481504378665
endloop
endfacet
facet normal 0.0 -1.0 0.0
outer loop
vertex 21.7272525395736 0.0 10.3481504378665
vertex 33.0 0.0 15.0
vertex 18.8272525395736 0.0 10.3481504378665
endloop
endfacet
facet normal 0.0 -1.0 0.0
outer loop
vertex 18.8272525395736 0.0 10.3481504378665
vertex 33.0 0.0 15.0
vertex 5.31365044794102 0.0 10.3977774788672
endloop
endfacet
facet normal 0.0 -1.0 0.0
outer loop
vertex 5.31365044794102 0.0 10.3977774788672
vertex 33.0 0.0 15.0
vertex 4.53719331263346 0.0 10.5
endloop
endfacet
facet normal 0.0 -1.0 0.0
outer loop
vertex 0.0 0.0 0.0
vertex 1.63941583376625 0.0 6.72354286469244
vertex 0.0 0.0 15.0
endloop
endfacet
facet normal 0.0 -1.0 0.0
outer loop
vertex 1.63941583376625 0.0 6.72354286469244
vertex 0.0 0.0 0.0
vertex 1.93911710128014 0.0 6.0
endloop
endfacet
facet normal 0.0 -1.0 0.0
outer loop
vertex 1.93911710128014 0.0 6.0
vertex 0.0 0.0 0.0
vertex 2.41587296907382 0.0 5.37867965644036
endloop
endfacet
facet normal 0.0 -1.0 0.0
outer loop
vertex 2.41587296907382 0.0 5.37867965644036
vertex 0.0 0.0 0.0
vertex 3.03719331263346 0.0 4.90192378864668
endloop
endfacet
facet normal 0.0 -1.0 0.0
outer loop
vertex 3.03719331263346 0.0 4.90192378864668
vertex 0.0 0.0 0.0
vertex 3.7607361773259 0.0 4.6022225211328
endloop
endfacet
facet normal 0.0 -1.0 0.0
outer loop
vertex 3.7607361773259 0.0 4.6022225211328
vertex 0.0 0.0 0.0
vertex 18.8272525395736 0.0 1.34815043786648
endloop
endfacet
facet normal 0.0 -1.0 0.0
outer loop
vertex 18.8272525395736 0.0 1.34815043786648
vertex 0.0 0.0 0.0
vertex 31.3272525395736 0.0 1.34815043786648
endloop
endfacet
facet normal 0.0 -1.0 0.0
outer loop
vertex 18.8272525395736 0.0 1.34815043786648
vertex 31.3272525395736 0.0 1.34815043786648
vertex 28.4272525395736 0.0 1.34815043786648
endloop
endfacet
facet normal 0.0 -1.0 0.0
outer loop
vertex 18.8272525395736 0.0 1.34815043786648
vertex 28.4272525395736 0.0 1.34815043786648
vertex 21.7272525395736 0.0 1.34815043786648
endloop
endfacet
facet normal 0.0 -1.0 0.0
outer loop
vertex 3.7607361773259 0.0 4.6022225211328
vertex 18.8272525395736 0.0 1.34815043786648
vertex 4.53719331263346 0.0 4.5
endloop
endfacet
facet normal 0.0 -1.0 0.0
outer loop
vertex 0.0 0.0 15.0
vertex 1.63941583376625 0.0 6.72354286469244
vertex 1.53719331263346 0.0 7.5
endloop
endfacet
facet normal 0.0 -1.0 0.0
outer loop
vertex 0.0 0.0 15.0
vertex 1.53719331263346 0.0 7.5
vertex 1.63941583376625 0.0 8.27645713530756
endloop
endfacet
facet normal 0.0 -1.0 0.0
outer loop
vertex 0.0 0.0 15.0
vertex 1.63941583376625 0.0 8.27645713530756
vertex 1.93911710128014 0.0 9.0
endloop
endfacet
facet normal 0.0 -1.0 0.0
outer loop
vertex 0.0 0.0 15.0
vertex 1.93911710128014 0.0 9.0
vertex 2.41587296907381 0.0 9.62132034355964
endloop
endfacet
facet normal 0.0 -1.0 0.0
outer loop
vertex 0.0 0.0 15.0
vertex 2.41587296907381 0.0 9.62132034355964
vertex 3.03719331263346 0.0 10.0980762113533
endloop
endfacet
facet normal 0.0 -1.0 0.0
outer loop
vertex 0.0 0.0 15.0
vertex 3.03719331263346 0.0 10.0980762113533
vertex 3.76073617732589 0.0 10.3977774788672
endloop
endfacet
facet normal 0.0 -1.0 0.0
outer loop
vertex 0.0 0.0 15.0
vertex 3.76073617732589 0.0 10.3977774788672
vertex 4.53719331263346 0.0 10.5
endloop
endfacet
facet normal 0.0 -1.0 0.0
outer loop
vertex 0.0 0.0 15.0
vertex 4.53719331263346 0.0 10.5
vertex 33.0 0.0 15.0
endloop
endfacet
facet normal 0.0 -1.0 0.0
outer loop
vertex 18.8272525395736 0.0 1.34815043786648
vertex 5.31365044794102 0.0 4.6022225211328
vertex 4.53719331263346 0.0 4.5
endloop
endfacet
facet normal 0.0 -1.0 0.0
outer loop
vertex 5.31365044794102 0.0 4.6022225211328
vertex 18.8272525395736 0.0 1.34815043786648
vertex 6.03719331263346 0.0 4.90192378864668
endloop
endfacet
facet normal 0.0 -1.0 0.0
outer loop
vertex 6.03719331263346 0.0 4.90192378864668
vertex 18.8272525395736 0.0 1.34815043786648
vertex 18.8272525395736 0.0 10.3481504378665
endloop
endfacet
facet normal 0.0 -1.0 0.0
outer loop
vertex 6.03719331263346 0.0 4.90192378864668
vertex 18.8272525395736 0.0 10.3481504378665
vertex 6.6585136561931 0.0 5.37867965644036
endloop
endfacet
facet normal 0.0 -1.0 0.0
outer loop
vertex 6.6585136561931 0.0 5.37867965644036
vertex 18.8272525395736 0.0 10.3481504378665
vertex 7.13526952398677 0.0 6.0
endloop
endfacet
facet normal 0.0 -1.0 0.0
outer loop
vertex 7.13526952398677 0.0 6.0
vertex 18.8272525395736 0.0 10.3481504378665
vertex 7.43497079150066 0.0 6.72354286469244
endloop
endfacet
facet normal 0.0 -1.0 0.0
outer loop
vertex 7.43497079150066 0.0 6.72354286469244
vertex 18.8272525395736 0.0 10.3481504378665
vertex 7.53719331263346 0.0 7.5
endloop
endfacet
facet normal 0.0 -1.0 0.0
outer loop
vertex 7.53719331263346 0.0 7.5
vertex 18.8272525395736 0.0 10.3481504378665
vertex 7.43497079150066 0.0 8.27645713530756
endloop
endfacet
facet normal 0.0 -1.0 0.0
outer loop
vertex 7.43497079150066 0.0 8.27645713530756
vertex 18.8272525395736 0.0 10.3481504378665
vertex 7.13526952398677 0.0 9.0
endloop
endfacet
facet normal 0.0 -1.0 0.0
outer loop
vertex 7.13526952398677 0.0 9.0
vertex 18.8272525395736 0.0 10.3481504378665
vertex 6.6585136561931 0.0 9.62132034355964
endloop
endfacet
facet normal 0.0 -1.0 0.0
outer loop
vertex 6.6585136561931 0.0 9.62132034355964
vertex 18.8272525395736 0.0 10.3481504378665
vertex 6.03719331263346 0.0 10.0980762113533
endloop
endfacet
facet normal 0.0 -1.0 0.0
outer loop
vertex 6.03719331263346 0.0 10.0980762113533
vertex 18.8272525395736 0.0 10.3481504378665
vertex 5.31365044794102 0.0 10.3977774788672
endloop
endfacet
facet normal 0.0 -1.0 0.0
outer loop
vertex 28.4272525395736 0.0 10.3481504378665
vertex 21.7272525395736 0.0 1.34815043786648
vertex 28.4272525395736 0.0 1.34815043786648
endloop
endfacet
facet normal 0.0 -1.0 0.0
outer loop
vertex 21.7272525395736 0.0 1.34815043786648
vertex 28.4272525395736 0.0 10.3481504378665
vertex 21.7272525395736 0.0 10.3481504378665
endloop
endfacet
facet normal -0.0 1.0 -0.0
outer loop
vertex 18.8272525395736 4.0 1.34815043786648
vertex 6.03719331263346 4.0 4.90192378864668
vertex 18.8272525395736 4.0 10.3481504378665
endloop
endfacet
facet normal -0.0 1.0 -0.0
outer loop
vertex 6.03719331263346 4.0 4.90192378864668
vertex 18.8272525395736 4.0 1.34815043786648
vertex 5.31365044794102 4.0 4.6022225211328
endloop
endfacet
facet normal -0.0 1.0 -0.0
outer loop
vertex 5.31365044794102 4.0 4.6022225211328
vertex 18.8272525395736 4.0 1.34815043786648
vertex 4.53719331263346 4.0 4.5
endloop
endfacet
facet normal -0.0 1.0 -0.0
outer loop
vertex 18.8272525395736 4.0 10.3481504378665
vertex 6.03719331263346 4.0 4.90192378864668
vertex 6.6585136561931 4.0 5.37867965644036
endloop
endfacet
facet normal -0.0 1.0 -0.0
outer loop
vertex 18.8272525395736 4.0 10.3481504378665
vertex 6.6585136561931 4.0 5.37867965644036
vertex 7.13526952398677 4.0 6.0
endloop
endfacet
facet normal -0.0 1.0 -0.0
outer loop
vertex 18.8272525395736 4.0 10.3481504378665
vertex 7.13526952398677 4.0 6.0
vertex 7.43497079150066 4.0 6.72354286469244
endloop
endfacet
facet normal -0.0 1.0 -0.0
outer loop
vertex 18.8272525395736 4.0 10.3481504378665
vertex 7.43497079150066 4.0 6.72354286469244
vertex 7.53719331263346 4.0 7.5
endloop
endfacet
facet normal -0.0 1.0 -0.0
outer loop
vertex 18.8272525395736 4.0 10.3481504378665
vertex 7.53719331263346 4.0 7.5
vertex 7.43497079150066 4.0 8.27645713530756
endloop
endfacet
facet normal -0.0 1.0 -0.0
outer loop
vertex 18.8272525395736 4.0 10.3481504378665
vertex 7.43497079150066 4.0 8.27645713530756
vertex 7.13526952398677 4.0 9.0
endloop
endfacet
facet normal -0.0 1.0 -0.0
outer loop
vertex 18.8272525395736 4.0 10.3481504378665
vertex 7.13526952398677 4.0 9.0
vertex 6.6585136561931 4.0 9.62132034355964
endloop
endfacet
facet normal -0.0 1.0 -0.0
outer loop
vertex 18.8272525395736 4.0 10.3481504378665
vertex 6.6585136561931 4.0 9.62132034355964
vertex 6.03719331263346 4.0 10.0980762113533
endloop
endfacet
facet normal -0.0 1.0 -0.0
outer loop
vertex 18.8272525395736 4.0 10.3481504378665
vertex 6.03719331263346 4.0 10.0980762113533
vertex 5.31365044794102 4.0 10.3977774788672
endloop
endfacet
facet normal -0.0 1.0 -0.0
outer loop
vertex 18.8272525395736 4.0 10.3481504378665
vertex 5.31365044794102 4.0 10.3977774788672
vertex 21.7272525395736 4.0 10.3481504378665
endloop
endfacet
facet normal -0.0 1.0 -0.0
outer loop
vertex 21.7272525395736 4.0 10.3481504378665
vertex 5.31365044794102 4.0 10.3977774788672
vertex 28.4272525395736 4.0 10.3481504378665
endloop
endfacet
facet normal -0.0 1.0 -0.0
outer loop
vertex 28.4272525395736 4.0 10.3481504378665
vertex 5.31365044794102 4.0 10.3977774788672
vertex 31.3272525395736 4.0 10.3481504378665
endloop
endfacet
facet normal -0.0 1.0 -0.0
outer loop
vertex 0.0 4.0 0.0
vertex 18.8272525395736 4.0 1.34815043786648
vertex 33.0 4.0 0.0
endloop
endfacet
facet normal -0.0 1.0 -0.0
outer loop
vertex 18.8272525395736 4.0 1.34815043786648
vertex 0.0 4.0 0.0
vertex 3.7607361773259 4.0 4.6022225211328
endloop
endfacet
facet normal -0.0 1.0 -0.0
outer loop
vertex 3.7607361773259 4.0 4.6022225211328
vertex 0.0 4.0 0.0
vertex 3.03719331263346 4.0 4.90192378864668
endloop
endfacet
facet normal -0.0 1.0 -0.0
outer loop
vertex 3.03719331263346 4.0 4.90192378864668
vertex 0.0 4.0 0.0
vertex 2.41587296907382 4.0 5.37867965644036
endloop
endfacet
facet normal -0.0 1.0 -0.0
outer loop
vertex 2.41587296907382 4.0 5.37867965644036
vertex 0.0 4.0 0.0
vertex 1.93911710128014 4.0 6.0
endloop
endfacet
facet normal -0.0 1.0 -0.0
outer loop
vertex 1.93911710128014 4.0 6.0
vertex 0.0 4.0 0.0
vertex 1.63941583376625 4.0 6.72354286469244
endloop
endfacet
facet normal -0.0 1.0 -0.0
outer loop
vertex 1.63941583376625 4.0 6.72354286469244
vertex 0.0 4.0 0.0
vertex 0.0 4.0 15.0
endloop
endfacet
facet normal -0.0 1.0 -0.0
outer loop
vertex 18.8272525395736 4.0 1.34815043786648
vertex 3.7607361773259 4.0 4.6022225211328
vertex 4.53719331263346 4.0 4.5
endloop
endfacet
facet normal -0.0 1.0 -0.0
outer loop
vertex 1.63941583376625 4.0 6.72354286469244
vertex 0.0 4.0 15.0
vertex 1.53719331263346 4.0 7.5
endloop
endfacet
facet normal -0.0 1.0 -0.0
outer loop
vertex 1.53719331263346 4.0 7.5
vertex 0.0 4.0 15.0
vertex 1.63941583376625 4.0 8.27645713530756
endloop
endfacet
facet normal -0.0 1.0 -0.0
outer loop
vertex 1.63941583376625 4.0 8.27645713530756
vertex 0.0 4.0 15.0
vertex 1.93911710128014 4.0 9.0
endloop
endfacet
facet normal -0.0 1.0 -0.0
outer loop
vertex 1.93911710128014 4.0 9.0
vertex 0.0 4.0 15.0
vertex 2.41587296907381 4.0 9.62132034355964
endloop
endfacet
facet normal -0.0 1.0 -0.0
outer loop
vertex 2.41587296907381 4.0 9.62132034355964
vertex 0.0 4.0 15.0
vertex 3.03719331263346 4.0 10.0980762113533
endloop
endfacet
facet normal -0.0 1.0 -0.0
outer loop
vertex 3.03719331263346 4.0 10.0980762113533
vertex 0.0 4.0 15.0
vertex 3.76073617732589 4.0 10.3977774788672
endloop
endfacet
facet normal -0.0 1.0 -0.0
outer loop
vertex 3.76073617732589 4.0 10.3977774788672
vertex 0.0 4.0 15.0
vertex 4.53719331263346 4.0 10.5
endloop
endfacet
facet normal -0.0 1.0 -0.0
outer loop
vertex 33.0 4.0 0.0
vertex 31.3272525395736 4.0 1.34815043786648
vertex 33.0 4.0 15.0
endloop
endfacet
facet normal -0.0 1.0 -0.0
outer loop
vertex 31.3272525395736 4.0 1.34815043786648
vertex 33.0 4.0 0.0
vertex 18.8272525395736 4.0 1.34815043786648
endloop
endfacet
facet normal -0.0 1.0 -0.0
outer loop
vertex 31.3272525395736 4.0 1.34815043786648
vertex 18.8272525395736 4.0 1.34815043786648
vertex 21.7272525395736 4.0 1.34815043786648
endloop
endfacet
facet normal -0.0 1.0 -0.0
outer loop
vertex 31.3272525395736 4.0 1.34815043786648
vertex 21.7272525395736 4.0 1.34815043786648
vertex 28.4272525395736 4.0 1.34815043786648
endloop
endfacet
facet normal -0.0 1.0 -0.0
outer loop
vertex 33.0 4.0 15.0
vertex 31.3272525395736 4.0 1.34815043786648
vertex 31.3272525395736 4.0 10.3481504378665
endloop
endfacet
facet normal -0.0 1.0 -0.0
outer loop
vertex 33.0 4.0 15.0
vertex 31.3272525395736 4.0 10.3481504378665
vertex 5.31365044794102 4.0 10.3977774788672
endloop
endfacet
facet normal -0.0 1.0 -0.0
outer loop
vertex 33.0 4.0 15.0
vertex 5.31365044794102 4.0 10.3977774788672
vertex 4.53719331263346 4.0 10.5
endloop
endfacet
facet normal -0.0 1.0 -0.0
outer loop
vertex 33.0 4.0 15.0
vertex 4.53719331263346 4.0 10.5
vertex 0.0 4.0 15.0
endloop
endfacet
facet normal -0.0 1.0 -0.0
outer loop
vertex 21.7272525395736 4.0 10.3481504378665
vertex 28.4272525395736 4.0 1.34815043786648
vertex 21.7272525395736 4.0 1.34815043786648
endloop
endfacet
facet normal -0.0 1.0 -0.0
outer loop
vertex 28.4272525395736 4.0 1.34815043786648
vertex 21.7272525395736 4.0 10.3481504378665
vertex 28.4272525395736 4.0 10.3481504378665
endloop
endfacet
endsolid limitswitchmount
