solid nema23mount
facet normal -0.0 1.0 -0.0
outer loop
vertex 0.0 0.0 0.0
vertex 4.0 0.0 1.4
vertex 56.0 0.0 0.0
endloop
endfacet
facet normal -0.0 1.0 -0.0
outer loop
vertex 4.0 0.0 1.4
vertex 0.0 0.0 0.0
vertex 3.32707048273345 0.0 1.48859285164842
endloop
endfacet
facet normal -0.0 1.0 -0.0
outer loop
vertex 3.32707048273345 0.0 1.48859285164842
vertex 0.0 0.0 0.0
vertex 2.7 0.0 1.74833395016046
endloop
endfacet
facet normal -0.0 1.0 -0.0
outer loop
vertex 2.7 0.0 1.74833395016046
vertex 0.0 0.0 0.0
vertex 2.16152236891498 0.0 2.16152236891498
endloop
endfacet
facet normal -0.0 1.0 -0.0
outer loop
vertex 2.16152236891498 0.0 2.16152236891498
vertex 0.0 0.0 0.0
vertex 1.74833395016046 0.0 2.7
endloop
endfacet
facet normal -0.0 1.0 -0.0
outer loop
vertex 1.74833395016046 0.0 2.7
vertex 0.0 0.0 0.0
vertex 1.48859285164842 0.0 3.32707048273344
endloop
endfacet
facet normal -0.0 1.0 -0.0
outer loop
vertex 1.48859285164842 0.0 3.32707048273344
vertex 0.0 0.0 0.0
vertex 1.4 0.0 4.0
endloop
endfacet
facet normal -0.0 1.0 -0.0
outer loop
vertex 1.4 0.0 4.0
vertex 0.0 0.0 0.0
vertex 0.0 0.0 56.0
endloop
endfacet
facet normal -0.0 1.0 -0.0
outer loop
vertex 1.4 0.0 4.0
vertex 0.0 0.0 56.0
vertex 1.48859285164842 0.0 4.67292951726655
endloop
endfacet
facet normal -0.0 1.0 -0.0
outer loop
vertex 1.48859285164842 0.0 4.67292951726655
vertex 0.0 0.0 56.0
vertex 1.74833395016046 0.0 5.3
endloop
endfacet
facet normal -0.0 1.0 -0.0
outer loop
vertex 1.74833395016046 0.0 5.3
vertex 0.0 0.0 56.0
vertex 2.16152236891497 0.0 5.83847763108502
endloop
endfacet
facet normal -0.0 1.0 -0.0
outer loop
vertex 2.16152236891497 0.0 5.83847763108502
vertex 0.0 0.0 56.0
vertex 2.7 0.0 6.25166604983954
endloop
endfacet
facet normal -0.0 1.0 -0.0
outer loop
vertex 2.7 0.0 6.25166604983954
vertex 0.0 0.0 56.0
vertex 3.32707048273344 0.0 6.51140714835158
endloop
endfacet
facet normal -0.0 1.0 -0.0
outer loop
vertex 3.32707048273344 0.0 6.51140714835158
vertex 0.0 0.0 56.0
vertex 4.0 0.0 6.6
endloop
endfacet
facet normal -0.0 1.0 -0.0
outer loop
vertex 4.0 0.0 6.6
vertex 0.0 0.0 56.0
vertex 9.48471003042028 0.0 21.7107033671115
endloop
endfacet
facet normal -0.0 1.0 -0.0
outer loop
vertex 4.0 0.0 6.6
vertex 9.48471003042028 0.0 21.7107033671115
vertex 11.7433929860427 0.0 17.1328962833772
endloop
endfacet
facet normal -0.0 1.0 -0.0
outer loop
vertex 4.0 0.0 6.6
vertex 11.7433929860427 0.0 17.1328962833772
vertex 15.109936844353 0.0 13.2956643591928
endloop
endfacet
facet normal -0.0 1.0 -0.0
outer loop
vertex 4.0 0.0 6.6
vertex 15.109936844353 0.0 13.2956643591928
vertex 19.3549172048841 0.0 10.4605086088657
endloop
endfacet
facet normal -0.0 1.0 -0.0
outer loop
vertex 4.0 0.0 6.6
vertex 19.3549172048841 0.0 10.4605086088657
vertex 24.1890456712275 0.0 8.82064021146451
endloop
endfacet
facet normal -0.0 1.0 -0.0
outer loop
vertex 4.0 0.0 6.6
vertex 24.1890456712275 0.0 8.82064021146451
vertex 52.0 0.0 6.6
endloop
endfacet
facet normal -0.0 1.0 -0.0
outer loop
vertex 52.0 0.0 6.6
vertex 24.1890456712275 0.0 8.82064021146451
vertex 29.282884377177 0.0 8.4878134882613
endloop
endfacet
facet normal -0.0 1.0 -0.0
outer loop
vertex 9.48471003042028 0.0 21.7107033671115
vertex 0.0 0.0 56.0
vertex 8.4878134882613 0.0 26.717115622823
endloop
endfacet
facet normal -0.0 1.0 -0.0
outer loop
vertex 8.4878134882613 0.0 26.717115622823
vertex 0.0 0.0 56.0
vertex 1.48859285164842 0.0 51.3270704827334
endloop
endfacet
facet normal -0.0 1.0 -0.0
outer loop
vertex 8.4878134882613 0.0 26.717115622823
vertex 1.48859285164842 0.0 51.3270704827334
vertex 8.82064021146449 0.0 31.8109543287725
endloop
endfacet
facet normal -0.0 1.0 -0.0
outer loop
vertex 8.82064021146449 0.0 31.8109543287725
vertex 1.48859285164842 0.0 51.3270704827334
vertex 1.74833395016046 0.0 50.7
endloop
endfacet
facet normal -0.0 1.0 -0.0
outer loop
vertex 8.82064021146449 0.0 31.8109543287725
vertex 1.74833395016046 0.0 50.7
vertex 10.4605086088657 0.0 36.6450827951159
endloop
endfacet
facet normal -0.0 1.0 -0.0
outer loop
vertex 10.4605086088657 0.0 36.6450827951159
vertex 1.74833395016046 0.0 50.7
vertex 2.16152236891498 0.0 50.161522368915
endloop
endfacet
facet normal -0.0 1.0 -0.0
outer loop
vertex 10.4605086088657 0.0 36.6450827951159
vertex 2.16152236891498 0.0 50.161522368915
vertex 13.2956643591927 0.0 40.890063155647
endloop
endfacet
facet normal -0.0 1.0 -0.0
outer loop
vertex 13.2956643591927 0.0 40.890063155647
vertex 2.16152236891498 0.0 50.161522368915
vertex 2.7 0.0 49.7483339501605
endloop
endfacet
facet normal -0.0 1.0 -0.0
outer loop
vertex 13.2956643591927 0.0 40.890063155647
vertex 2.7 0.0 49.7483339501605
vertex 3.32707048273345 0.0 49.4885928516484
endloop
endfacet
facet normal -0.0 1.0 -0.0
outer loop
vertex 13.2956643591927 0.0 40.890063155647
vertex 3.32707048273345 0.0 49.4885928516484
vertex 17.1328962833772 0.0 44.2566070139573
endloop
endfacet
facet normal -0.0 1.0 -0.0
outer loop
vertex 17.1328962833772 0.0 44.2566070139573
vertex 3.32707048273345 0.0 49.4885928516484
vertex 21.7107033671115 0.0 46.5152899695797
endloop
endfacet
facet normal -0.0 1.0 -0.0
outer loop
vertex 21.7107033671115 0.0 46.5152899695797
vertex 3.32707048273345 0.0 49.4885928516484
vertex 4.0 0.0 49.4
endloop
endfacet
facet normal -0.0 1.0 -0.0
outer loop
vertex 21.7107033671115 0.0 46.5152899695797
vertex 4.0 0.0 49.4
vertex 26.717115622823 0.0 47.5121865117387
endloop
endfacet
facet normal -0.0 1.0 -0.0
outer loop
vertex 1.48859285164842 0.0 51.3270704827334
vertex 0.0 0.0 56.0
vertex 1.4 0.0 52.0
endloop
endfacet
facet normal -0.0 1.0 -0.0
outer loop
vertex 1.4 0.0 52.0
vertex 0.0 0.0 56.0
vertex 1.48859285164842 0.0 52.6729295172666
endloop
endfacet
facet normal -0.0 1.0 -0.0
outer loop
vertex 1.48859285164842 0.0 52.6729295172666
vertex 0.0 0.0 56.0
vertex 1.74833395016046 0.0 53.3
endloop
endfacet
facet normal -0.0 1.0 -0.0
outer loop
vertex 1.74833395016046 0.0 53.3
vertex 0.0 0.0 56.0
vertex 2.16152236891498 0.0 53.838477631085
endloop
endfacet
facet normal -0.0 1.0 -0.0
outer loop
vertex 2.16152236891498 0.0 53.838477631085
vertex 0.0 0.0 56.0
vertex 2.7 0.0 54.2516660498395
endloop
endfacet
facet normal -0.0 1.0 -0.0
outer loop
vertex 2.7 0.0 54.2516660498395
vertex 0.0 0.0 56.0
vertex 3.32707048273344 0.0 54.5114071483516
endloop
endfacet
facet normal -0.0 1.0 -0.0
outer loop
vertex 3.32707048273344 0.0 54.5114071483516
vertex 0.0 0.0 56.0
vertex 4.0 0.0 54.6
endloop
endfacet
facet normal -0.0 1.0 -0.0
outer loop
vertex 4.0 0.0 54.6
vertex 0.0 0.0 56.0
vertex 52.0 0.0 54.6
endloop
endfacet
facet normal -0.0 1.0 -0.0
outer loop
vertex 56.0 0.0 0.0
vertex 54.6 0.0 4.0
vertex 56.0 0.0 56.0
endloop
endfacet
facet normal -0.0 1.0 -0.0
outer loop
vertex 54.6 0.0 4.0
vertex 56.0 0.0 0.0
vertex 54.5114071483516 0.0 3.32707048273345
endloop
endfacet
facet normal -0.0 1.0 -0.0
outer loop
vertex 54.5114071483516 0.0 3.32707048273345
vertex 56.0 0.0 0.0
vertex 54.2516660498395 0.0 2.7
endloop
endfacet
facet normal -0.0 1.0 -0.0
outer loop
vertex 54.2516660498395 0.0 2.7
vertex 56.0 0.0 0.0
vertex 53.838477631085 0.0 2.16152236891498
endloop
endfacet
facet normal -0.0 1.0 -0.0
outer loop
vertex 53.838477631085 0.0 2.16152236891498
vertex 56.0 0.0 0.0
vertex 53.3 0.0 1.74833395016046
endloop
endfacet
facet normal -0.0 1.0 -0.0
outer loop
vertex 53.3 0.0 1.74833395016046
vertex 56.0 0.0 0.0
vertex 52.6729295172666 0.0 1.48859285164842
endloop
endfacet
facet normal -0.0 1.0 -0.0
outer loop
vertex 52.6729295172666 0.0 1.48859285164842
vertex 56.0 0.0 0.0
vertex 52.0 0.0 1.4
endloop
endfacet
facet normal -0.0 1.0 -0.0
outer loop
vertex 52.0 0.0 1.4
vertex 56.0 0.0 0.0
vertex 4.0 0.0 1.4
endloop
endfacet
facet normal -0.0 1.0 -0.0
outer loop
vertex 56.0 0.0 56.0
vertex 54.6 0.0 4.0
vertex 54.5114071483516 0.0 4.67292951726655
endloop
endfacet
facet normal -0.0 1.0 -0.0
outer loop
vertex 56.0 0.0 56.0
vertex 54.5114071483516 0.0 4.67292951726655
vertex 54.2516660498395 0.0 5.3
endloop
endfacet
facet normal -0.0 1.0 -0.0
outer loop
vertex 56.0 0.0 56.0
vertex 54.2516660498395 0.0 5.3
vertex 53.838477631085 0.0 5.83847763108502
endloop
endfacet
facet normal -0.0 1.0 -0.0
outer loop
vertex 56.0 0.0 56.0
vertex 53.838477631085 0.0 5.83847763108502
vertex 53.3 0.0 6.25166604983954
endloop
endfacet
facet normal -0.0 1.0 -0.0
outer loop
vertex 56.0 0.0 56.0
vertex 53.3 0.0 6.25166604983954
vertex 52.6729295172666 0.0 6.51140714835158
endloop
endfacet
facet normal -0.0 1.0 -0.0
outer loop
vertex 56.0 0.0 56.0
vertex 52.6729295172666 0.0 6.51140714835158
vertex 52.0 0.0 6.6
endloop
endfacet
facet normal -0.0 1.0 -0.0
outer loop
vertex 56.0 0.0 56.0
vertex 52.0 0.0 6.6
vertex 47.1793597885355 0.0 24.1890456712275
endloop
endfacet
facet normal -0.0 1.0 -0.0
outer loop
vertex 47.1793597885355 0.0 24.1890456712275
vertex 52.0 0.0 6.6
vertex 45.5394913911343 0.0 19.3549172048841
endloop
endfacet
facet normal -0.0 1.0 -0.0
outer loop
vertex 45.5394913911343 0.0 19.3549172048841
vertex 52.0 0.0 6.6
vertex 42.7043356408073 0.0 15.109936844353
endloop
endfacet
facet normal -0.0 1.0 -0.0
outer loop
vertex 42.7043356408073 0.0 15.109936844353
vertex 52.0 0.0 6.6
vertex 38.8671037166228 0.0 11.7433929860427
endloop
endfacet
facet normal -0.0 1.0 -0.0
outer loop
vertex 38.8671037166228 0.0 11.7433929860427
vertex 52.0 0.0 6.6
vertex 34.2892966328885 0.0 9.48471003042027
endloop
endfacet
facet normal -0.0 1.0 -0.0
outer loop
vertex 34.2892966328885 0.0 9.48471003042027
vertex 52.0 0.0 6.6
vertex 29.282884377177 0.0 8.4878134882613
endloop
endfacet
facet normal -0.0 1.0 -0.0
outer loop
vertex 56.0 0.0 56.0
vertex 47.1793597885355 0.0 24.1890456712275
vertex 47.5121865117387 0.0 29.282884377177
endloop
endfacet
facet normal -0.0 1.0 -0.0
outer loop
vertex 56.0 0.0 56.0
vertex 47.5121865117387 0.0 29.282884377177
vertex 54.5114071483516 0.0 51.3270704827334
endloop
endfacet
facet normal -0.0 1.0 -0.0
outer loop
vertex 54.5114071483516 0.0 51.3270704827334
vertex 47.5121865117387 0.0 29.282884377177
vertex 54.2516660498395 0.0 50.7
endloop
endfacet
facet normal -0.0 1.0 -0.0
outer loop
vertex 54.2516660498395 0.0 50.7
vertex 47.5121865117387 0.0 29.282884377177
vertex 46.5152899695797 0.0 34.2892966328885
endloop
endfacet
facet normal -0.0 1.0 -0.0
outer loop
vertex 54.2516660498395 0.0 50.7
vertex 46.5152899695797 0.0 34.2892966328885
vertex 53.838477631085 0.0 50.161522368915
endloop
endfacet
facet normal -0.0 1.0 -0.0
outer loop
vertex 53.838477631085 0.0 50.161522368915
vertex 46.5152899695797 0.0 34.2892966328885
vertex 44.2566070139573 0.0 38.8671037166228
endloop
endfacet
facet normal -0.0 1.0 -0.0
outer loop
vertex 53.838477631085 0.0 50.161522368915
vertex 44.2566070139573 0.0 38.8671037166228
vertex 53.3 0.0 49.7483339501605
endloop
endfacet
facet normal -0.0 1.0 -0.0
outer loop
vertex 53.3 0.0 49.7483339501605
vertex 44.2566070139573 0.0 38.8671037166228
vertex 40.890063155647 0.0 42.7043356408072
endloop
endfacet
facet normal -0.0 1.0 -0.0
outer loop
vertex 53.3 0.0 49.7483339501605
vertex 40.890063155647 0.0 42.7043356408072
vertex 52.6729295172666 0.0 49.4885928516484
endloop
endfacet
facet normal -0.0 1.0 -0.0
outer loop
vertex 52.6729295172666 0.0 49.4885928516484
vertex 40.890063155647 0.0 42.7043356408072
vertex 36.6450827951159 0.0 45.5394913911343
endloop
endfacet
facet normal -0.0 1.0 -0.0
outer loop
vertex 52.6729295172666 0.0 49.4885928516484
vertex 36.6450827951159 0.0 45.5394913911343
vertex 52.0 0.0 49.4
endloop
endfacet
facet normal -0.0 1.0 -0.0
outer loop
vertex 52.0 0.0 49.4
vertex 36.6450827951159 0.0 45.5394913911343
vertex 31.8109543287725 0.0 47.1793597885355
endloop
endfacet
facet normal -0.0 1.0 -0.0
outer loop
vertex 52.0 0.0 49.4
vertex 31.8109543287725 0.0 47.1793597885355
vertex 26.717115622823 0.0 47.5121865117387
endloop
endfacet
facet normal -0.0 1.0 -0.0
outer loop
vertex 52.0 0.0 49.4
vertex 26.717115622823 0.0 47.5121865117387
vertex 4.0 0.0 49.4
endloop
endfacet
facet normal -0.0 1.0 -0.0
outer loop
vertex 56.0 0.0 56.0
vertex 54.5114071483516 0.0 51.3270704827334
vertex 54.6 0.0 52.0
endloop
endfacet
facet normal -0.0 1.0 -0.0
outer loop
vertex 56.0 0.0 56.0
vertex 54.6 0.0 52.0
vertex 54.5114071483516 0.0 52.6729295172666
endloop
endfacet
facet normal -0.0 1.0 -0.0
outer loop
vertex 56.0 0.0 56.0
vertex 54.5114071483516 0.0 52.6729295172666
vertex 54.2516660498395 0.0 53.3
endloop
endfacet
facet normal -0.0 1.0 -0.0
outer loop
vertex 56.0 0.0 56.0
vertex 54.2516660498395 0.0 53.3
vertex 53.838477631085 0.0 53.838477631085
endloop
endfacet
facet normal -0.0 1.0 -0.0
outer loop
vertex 56.0 0.0 56.0
vertex 53.838477631085 0.0 53.838477631085
vertex 53.3 0.0 54.2516660498395
endloop
endfacet
facet normal -0.0 1.0 -0.0
outer loop
vertex 56.0 0.0 56.0
vertex 53.3 0.0 54.2516660498395
vertex 52.6729295172666 0.0 54.5114071483516
endloop
endfacet
facet normal -0.0 1.0 -0.0
outer loop
vertex 56.0 0.0 56.0
vertex 52.6729295172666 0.0 54.5114071483516
vertex 52.0 0.0 54.6
endloop
endfacet
facet normal -0.0 1.0 -0.0
outer loop
vertex 56.0 0.0 56.0
vertex 52.0 0.0 54.6
vertex 0.0 0.0 56.0
endloop
endfacet
facet normal -0.0 1.0 -0.0
outer loop
vertex 4.67292951726655 0.0 49.4885928516484
vertex 52.0 0.0 49.4
vertex 4.0 0.0 49.4
endloop
endfacet
facet normal -0.0 1.0 -0.0
outer loop
vertex 52.0 0.0 49.4
vertex 4.67292951726655 0.0 49.4885928516484
vertex 51.3270704827334 0.0 49.4885928516484
endloop
endfacet
facet normal -0.0 1.0 -0.0
outer loop
vertex 51.3270704827334 0.0 49.4885928516484
vertex 4.67292951726655 0.0 49.4885928516484
vertex 5.3 0.0 49.7483339501605
endloop
endfacet
facet normal -0.0 1.0 -0.0
outer loop
vertex 51.3270704827334 0.0 49.4885928516484
vertex 5.3 0.0 49.7483339501605
vertex 50.7 0.0 49.7483339501605
endloop
endfacet
facet normal -0.0 1.0 -0.0
outer loop
vertex 50.7 0.0 49.7483339501605
vertex 5.3 0.0 49.7483339501605
vertex 5.83847763108502 0.0 50.161522368915
endloop
endfacet
facet normal -0.0 1.0 -0.0
outer loop
vertex 50.7 0.0 49.7483339501605
vertex 5.83847763108502 0.0 50.161522368915
vertex 50.161522368915 0.0 50.161522368915
endloop
endfacet
facet normal -0.0 1.0 -0.0
outer loop
vertex 50.161522368915 0.0 50.161522368915
vertex 5.83847763108502 0.0 50.161522368915
vertex 6.25166604983954 0.0 50.7
endloop
endfacet
facet normal -0.0 1.0 -0.0
outer loop
vertex 50.161522368915 0.0 50.161522368915
vertex 6.25166604983954 0.0 50.7
vertex 49.7483339501605 0.0 50.7
endloop
endfacet
facet normal -0.0 1.0 -0.0
outer loop
vertex 49.7483339501605 0.0 50.7
vertex 6.25166604983954 0.0 50.7
vertex 49.4885928516484 0.0 51.3270704827334
endloop
endfacet
facet normal -0.0 1.0 -0.0
outer loop
vertex 49.4885928516484 0.0 51.3270704827334
vertex 6.25166604983954 0.0 50.7
vertex 6.51140714835158 0.0 51.3270704827334
endloop
endfacet
facet normal -0.0 1.0 -0.0
outer loop
vertex 49.4885928516484 0.0 51.3270704827334
vertex 6.51140714835158 0.0 51.3270704827334
vertex 6.6 0.0 52.0
endloop
endfacet
facet normal -0.0 1.0 -0.0
outer loop
vertex 49.4885928516484 0.0 51.3270704827334
vertex 6.6 0.0 52.0
vertex 49.4 0.0 52.0
endloop
endfacet
facet normal -0.0 1.0 -0.0
outer loop
vertex 49.4 0.0 52.0
vertex 6.6 0.0 52.0
vertex 6.51140714835158 0.0 52.6729295172666
endloop
endfacet
facet normal -0.0 1.0 -0.0
outer loop
vertex 49.4 0.0 52.0
vertex 6.51140714835158 0.0 52.6729295172666
vertex 49.4885928516484 0.0 52.6729295172666
endloop
endfacet
facet normal -0.0 1.0 -0.0
outer loop
vertex 49.4885928516484 0.0 52.6729295172666
vertex 6.51140714835158 0.0 52.6729295172666
vertex 6.25166604983954 0.0 53.3
endloop
endfacet
facet normal -0.0 1.0 -0.0
outer loop
vertex 49.4885928516484 0.0 52.6729295172666
vertex 6.25166604983954 0.0 53.3
vertex 49.7483339501605 0.0 53.3
endloop
endfacet
facet normal -0.0 1.0 -0.0
outer loop
vertex 49.7483339501605 0.0 53.3
vertex 6.25166604983954 0.0 53.3
vertex 5.83847763108502 0.0 53.838477631085
endloop
endfacet
facet normal -0.0 1.0 -0.0
outer loop
vertex 49.7483339501605 0.0 53.3
vertex 5.83847763108502 0.0 53.838477631085
vertex 50.161522368915 0.0 53.838477631085
endloop
endfacet
facet normal -0.0 1.0 -0.0
outer loop
vertex 50.161522368915 0.0 53.838477631085
vertex 5.83847763108502 0.0 53.838477631085
vertex 5.3 0.0 54.2516660498395
endloop
endfacet
facet normal -0.0 1.0 -0.0
outer loop
vertex 50.161522368915 0.0 53.838477631085
vertex 5.3 0.0 54.2516660498395
vertex 50.7 0.0 54.2516660498395
endloop
endfacet
facet normal -0.0 1.0 -0.0
outer loop
vertex 50.7 0.0 54.2516660498395
vertex 5.3 0.0 54.2516660498395
vertex 4.67292951726655 0.0 54.5114071483516
endloop
endfacet
facet normal -0.0 1.0 -0.0
outer loop
vertex 50.7 0.0 54.2516660498395
vertex 4.67292951726655 0.0 54.5114071483516
vertex 51.3270704827334 0.0 54.5114071483516
endloop
endfacet
facet normal -0.0 1.0 -0.0
outer loop
vertex 51.3270704827334 0.0 54.5114071483516
vertex 4.67292951726655 0.0 54.5114071483516
vertex 4.0 0.0 54.6
endloop
endfacet
facet normal -0.0 1.0 -0.0
outer loop
vertex 51.3270704827334 0.0 54.5114071483516
vertex 4.0 0.0 54.6
vertex 52.0 0.0 54.6
endloop
endfacet
facet normal -0.0 1.0 -0.0
outer loop
vertex 4.67292951726655 0.0 1.48859285164842
vertex 52.0 0.0 1.4
vertex 4.0 0.0 1.4
endloop
endfacet
facet normal -0.0 1.0 -0.0
outer loop
vertex 52.0 0.0 1.4
vertex 4.67292951726655 0.0 1.48859285164842
vertex 51.3270704827334 0.0 1.48859285164842
endloop
endfacet
facet normal -0.0 1.0 -0.0
outer loop
vertex 51.3270704827334 0.0 1.48859285164842
vertex 4.67292951726655 0.0 1.48859285164842
vertex 50.7 0.0 1.74833395016046
endloop
endfacet
facet normal -0.0 1.0 -0.0
outer loop
vertex 50.7 0.0 1.74833395016046
vertex 4.67292951726655 0.0 1.48859285164842
vertex 5.3 0.0 1.74833395016046
endloop
endfacet
facet normal -0.0 1.0 -0.0
outer loop
vertex 50.7 0.0 1.74833395016046
vertex 5.3 0.0 1.74833395016046
vertex 50.161522368915 0.0 2.16152236891498
endloop
endfacet
facet normal -0.0 1.0 -0.0
outer loop
vertex 50.161522368915 0.0 2.16152236891498
vertex 5.3 0.0 1.74833395016046
vertex 5.83847763108502 0.0 2.16152236891498
endloop
endfacet
facet normal -0.0 1.0 -0.0
outer loop
vertex 50.161522368915 0.0 2.16152236891498
vertex 5.83847763108502 0.0 2.16152236891498
vertex 49.7483339501605 0.0 2.7
endloop
endfacet
facet normal -0.0 1.0 -0.0
outer loop
vertex 49.7483339501605 0.0 2.7
vertex 5.83847763108502 0.0 2.16152236891498
vertex 6.25166604983954 0.0 2.7
endloop
endfacet
facet normal -0.0 1.0 -0.0
outer loop
vertex 49.7483339501605 0.0 2.7
vertex 6.25166604983954 0.0 2.7
vertex 49.4885928516484 0.0 3.32707048273344
endloop
endfacet
facet normal -0.0 1.0 -0.0
outer loop
vertex 49.4885928516484 0.0 3.32707048273344
vertex 6.25166604983954 0.0 2.7
vertex 6.51140714835158 0.0 3.32707048273345
endloop
endfacet
facet normal -0.0 1.0 -0.0
outer loop
vertex 49.4885928516484 0.0 3.32707048273344
vertex 6.51140714835158 0.0 3.32707048273345
vertex 49.4 0.0 4.0
endloop
endfacet
facet normal -0.0 1.0 -0.0
outer loop
vertex 49.4 0.0 4.0
vertex 6.51140714835158 0.0 3.32707048273345
vertex 6.6 0.0 4.0
endloop
endfacet
facet normal -0.0 1.0 -0.0
outer loop
vertex 49.4 0.0 4.0
vertex 6.6 0.0 4.0
vertex 6.51140714835158 0.0 4.67292951726656
endloop
endfacet
facet normal -0.0 1.0 -0.0
outer loop
vertex 49.4 0.0 4.0
vertex 6.51140714835158 0.0 4.67292951726656
vertex 49.4885928516484 0.0 4.67292951726655
endloop
endfacet
facet normal -0.0 1.0 -0.0
outer loop
vertex 49.4885928516484 0.0 4.67292951726655
vertex 6.51140714835158 0.0 4.67292951726656
vertex 49.7483339501605 0.0 5.3
endloop
endfacet
facet normal -0.0 1.0 -0.0
outer loop
vertex 49.7483339501605 0.0 5.3
vertex 6.51140714835158 0.0 4.67292951726656
vertex 6.25166604983954 0.0 5.3
endloop
endfacet
facet normal -0.0 1.0 -0.0
outer loop
vertex 49.7483339501605 0.0 5.3
vertex 6.25166604983954 0.0 5.3
vertex 50.161522368915 0.0 5.83847763108502
endloop
endfacet
facet normal -0.0 1.0 -0.0
outer loop
vertex 50.161522368915 0.0 5.83847763108502
vertex 6.25166604983954 0.0 5.3
vertex 5.83847763108502 0.0 5.83847763108502
endloop
endfacet
facet normal -0.0 1.0 -0.0
outer loop
vertex 50.161522368915 0.0 5.83847763108502
vertex 5.83847763108502 0.0 5.83847763108502
vertex 5.3 0.0 6.25166604983954
endloop
endfacet
facet normal -0.0 1.0 -0.0
outer loop
vertex 50.161522368915 0.0 5.83847763108502
vertex 5.3 0.0 6.25166604983954
vertex 50.7 0.0 6.25166604983954
endloop
endfacet
facet normal -0.0 1.0 -0.0
outer loop
vertex 50.7 0.0 6.25166604983954
vertex 5.3 0.0 6.25166604983954
vertex 51.3270704827334 0.0 6.51140714835158
endloop
endfacet
facet normal -0.0 1.0 -0.0
outer loop
vertex 51.3270704827334 0.0 6.51140714835158
vertex 5.3 0.0 6.25166604983954
vertex 4.67292951726655 0.0 6.51140714835158
endloop
endfacet
facet normal -0.0 1.0 -0.0
outer loop
vertex 51.3270704827334 0.0 6.51140714835158
vertex 4.67292951726655 0.0 6.51140714835158
vertex 4.0 0.0 6.6
endloop
endfacet
facet normal -0.0 1.0 -0.0
outer loop
vertex 51.3270704827334 0.0 6.51140714835158
vertex 4.0 0.0 6.6
vertex 52.0 0.0 6.6
endloop
endfacet
facet normal 0.0 -1.0 0.0
outer loop
vertex 51.3270704827334 -5.0 1.48859285164842
vertex 4.0 -5.0 1.4
vertex 52.0 -5.0 1.4
endloop
endfacet
facet normal 0.0 -1.0 0.0
outer loop
vertex 4.0 -5.0 1.4
vertex 51.3270704827334 -5.0 1.48859285164842
vertex 4.67292951726655 -5.0 1.48859285164842
endloop
endfacet
facet normal 0.0 -1.0 0.0
outer loop
vertex 4.67292951726655 -5.0 1.48859285164842
vertex 51.3270704827334 -5.0 1.48859285164842
vertex 50.7 -5.0 1.74833395016046
endloop
endfacet
facet normal 0.0 -1.0 0.0
outer loop
vertex 4.67292951726655 -5.0 1.48859285164842
vertex 50.7 -5.0 1.74833395016046
vertex 5.3 -5.0 1.74833395016046
endloop
endfacet
facet normal 0.0 -1.0 0.0
outer loop
vertex 5.3 -5.0 1.74833395016046
vertex 50.7 -5.0 1.74833395016046
vertex 50.161522368915 -5.0 2.16152236891498
endloop
endfacet
facet normal 0.0 -1.0 0.0
outer loop
vertex 5.3 -5.0 1.74833395016046
vertex 50.161522368915 -5.0 2.16152236891498
vertex 5.83847763108502 -5.0 2.16152236891498
endloop
endfacet
facet normal 0.0 -1.0 0.0
outer loop
vertex 5.83847763108502 -5.0 2.16152236891498
vertex 50.161522368915 -5.0 2.16152236891498
vertex 49.7483339501605 -5.0 2.7
endloop
endfacet
facet normal 0.0 -1.0 0.0
outer loop
vertex 5.83847763108502 -5.0 2.16152236891498
vertex 49.7483339501605 -5.0 2.7
vertex 6.25166604983954 -5.0 2.7
endloop
endfacet
facet normal 0.0 -1.0 0.0
outer loop
vertex 6.25166604983954 -5.0 2.7
vertex 49.7483339501605 -5.0 2.7
vertex 49.4885928516484 -5.0 3.32707048273344
endloop
endfacet
facet normal 0.0 -1.0 0.0
outer loop
vertex 6.25166604983954 -5.0 2.7
vertex 49.4885928516484 -5.0 3.32707048273344
vertex 6.51140714835158 -5.0 3.32707048273345
endloop
endfacet
facet normal 0.0 -1.0 0.0
outer loop
vertex 6.51140714835158 -5.0 3.32707048273345
vertex 49.4885928516484 -5.0 3.32707048273344
vertex 49.4 -5.0 4.0
endloop
endfacet
facet normal 0.0 -1.0 0.0
outer loop
vertex 6.51140714835158 -5.0 3.32707048273345
vertex 49.4 -5.0 4.0
vertex 6.6 -5.0 4.0
endloop
endfacet
facet normal 0.0 -1.0 0.0
outer loop
vertex 6.6 -5.0 4.0
vertex 49.4 -5.0 4.0
vertex 49.4885928516484 -5.0 4.67292951726655
endloop
endfacet
facet normal 0.0 -1.0 0.0
outer loop
vertex 6.6 -5.0 4.0
vertex 49.4885928516484 -5.0 4.67292951726655
vertex 6.51140714835158 -5.0 4.67292951726656
endloop
endfacet
facet normal 0.0 -1.0 0.0
outer loop
vertex 6.51140714835158 -5.0 4.67292951726656
vertex 49.4885928516484 -5.0 4.67292951726655
vertex 49.7483339501605 -5.0 5.3
endloop
endfacet
facet normal 0.0 -1.0 0.0
outer loop
vertex 6.51140714835158 -5.0 4.67292951726656
vertex 49.7483339501605 -5.0 5.3
vertex 6.25166604983954 -5.0 5.3
endloop
endfacet
facet normal 0.0 -1.0 0.0
outer loop
vertex 6.25166604983954 -5.0 5.3
vertex 49.7483339501605 -5.0 5.3
vertex 50.161522368915 -5.0 5.83847763108502
endloop
endfacet
facet normal 0.0 -1.0 0.0
outer loop
vertex 6.25166604983954 -5.0 5.3
vertex 50.161522368915 -5.0 5.83847763108502
vertex 5.83847763108502 -5.0 5.83847763108502
endloop
endfacet
facet normal 0.0 -1.0 0.0
outer loop
vertex 5.83847763108502 -5.0 5.83847763108502
vertex 50.161522368915 -5.0 5.83847763108502
vertex 5.3 -5.0 6.25166604983954
endloop
endfacet
facet normal 0.0 -1.0 0.0
outer loop
vertex 5.3 -5.0 6.25166604983954
vertex 50.161522368915 -5.0 5.83847763108502
vertex 50.7 -5.0 6.25166604983954
endloop
endfacet
facet normal 0.0 -1.0 0.0
outer loop
vertex 5.3 -5.0 6.25166604983954
vertex 50.7 -5.0 6.25166604983954
vertex 51.3270704827334 -5.0 6.51140714835158
endloop
endfacet
facet normal 0.0 -1.0 0.0
outer loop
vertex 5.3 -5.0 6.25166604983954
vertex 51.3270704827334 -5.0 6.51140714835158
vertex 4.67292951726655 -5.0 6.51140714835158
endloop
endfacet
facet normal 0.0 -1.0 0.0
outer loop
vertex 4.67292951726655 -5.0 6.51140714835158
vertex 51.3270704827334 -5.0 6.51140714835158
vertex 52.0 -5.0 6.6
endloop
endfacet
facet normal 0.0 -1.0 0.0
outer loop
vertex 4.67292951726655 -5.0 6.51140714835158
vertex 52.0 -5.0 6.6
vertex 4.0 -5.0 6.6
endloop
endfacet
facet normal 0.0 -1.0 0.0
outer loop
vertex 56.0 -5.0 0.0
vertex 52.0 -5.0 1.4
vertex 0.0 -5.0 0.0
endloop
endfacet
facet normal 0.0 -1.0 0.0
outer loop
vertex 52.0 -5.0 1.4
vertex 56.0 -5.0 0.0
vertex 52.6729295172666 -5.0 1.48859285164842
endloop
endfacet
facet normal 0.0 -1.0 0.0
outer loop
vertex 52.6729295172666 -5.0 1.48859285164842
vertex 56.0 -5.0 0.0
vertex 53.3 -5.0 1.74833395016046
endloop
endfacet
facet normal 0.0 -1.0 0.0
outer loop
vertex 53.3 -5.0 1.74833395016046
vertex 56.0 -5.0 0.0
vertex 53.838477631085 -5.0 2.16152236891498
endloop
endfacet
facet normal 0.0 -1.0 0.0
outer loop
vertex 53.838477631085 -5.0 2.16152236891498
vertex 56.0 -5.0 0.0
vertex 54.2516660498395 -5.0 2.7
endloop
endfacet
facet normal 0.0 -1.0 0.0
outer loop
vertex 54.2516660498395 -5.0 2.7
vertex 56.0 -5.0 0.0
vertex 54.5114071483516 -5.0 3.32707048273345
endloop
endfacet
facet normal 0.0 -1.0 0.0
outer loop
vertex 54.5114071483516 -5.0 3.32707048273345
vertex 56.0 -5.0 0.0
vertex 54.6 -5.0 4.0
endloop
endfacet
facet normal 0.0 -1.0 0.0
outer loop
vertex 54.6 -5.0 4.0
vertex 56.0 -5.0 0.0
vertex 56.0 -5.0 56.0
endloop
endfacet
facet normal 0.0 -1.0 0.0
outer loop
vertex 54.6 -5.0 4.0
vertex 56.0 -5.0 56.0
vertex 54.5114071483516 -5.0 4.67292951726655
endloop
endfacet
facet normal 0.0 -1.0 0.0
outer loop
vertex 54.5114071483516 -5.0 4.67292951726655
vertex 56.0 -5.0 56.0
vertex 54.2516660498395 -5.0 5.3
endloop
endfacet
facet normal 0.0 -1.0 0.0
outer loop
vertex 54.2516660498395 -5.0 5.3
vertex 56.0 -5.0 56.0
vertex 53.838477631085 -5.0 5.83847763108502
endloop
endfacet
facet normal 0.0 -1.0 0.0
outer loop
vertex 53.838477631085 -5.0 5.83847763108502
vertex 56.0 -5.0 56.0
vertex 53.3 -5.0 6.25166604983954
endloop
endfacet
facet normal 0.0 -1.0 0.0
outer loop
vertex 53.3 -5.0 6.25166604983954
vertex 56.0 -5.0 56.0
vertex 52.6729295172666 -5.0 6.51140714835158
endloop
endfacet
facet normal 0.0 -1.0 0.0
outer loop
vertex 52.6729295172666 -5.0 6.51140714835158
vertex 56.0 -5.0 56.0
vertex 52.0 -5.0 6.6
endloop
endfacet
facet normal 0.0 -1.0 0.0
outer loop
vertex 52.0 -5.0 6.6
vertex 56.0 -5.0 56.0
vertex 47.1793597885355 -5.0 24.1890456712275
endloop
endfacet
facet normal 0.0 -1.0 0.0
outer loop
vertex 52.0 -5.0 6.6
vertex 47.1793597885355 -5.0 24.1890456712275
vertex 45.5394913911343 -5.0 19.3549172048841
endloop
endfacet
facet normal 0.0 -1.0 0.0
outer loop
vertex 52.0 -5.0 6.6
vertex 45.5394913911343 -5.0 19.3549172048841
vertex 42.7043356408072 -5.0 15.109936844353
endloop
endfacet
facet normal 0.0 -1.0 0.0
outer loop
vertex 52.0 -5.0 6.6
vertex 42.7043356408072 -5.0 15.109936844353
vertex 38.8671037166228 -5.0 11.7433929860427
endloop
endfacet
facet normal 0.0 -1.0 0.0
outer loop
vertex 52.0 -5.0 6.6
vertex 38.8671037166228 -5.0 11.7433929860427
vertex 34.2892966328885 -5.0 9.48471003042028
endloop
endfacet
facet normal 0.0 -1.0 0.0
outer loop
vertex 52.0 -5.0 6.6
vertex 34.2892966328885 -5.0 9.48471003042028
vertex 29.282884377177 -5.0 8.4878134882613
endloop
endfacet
facet normal 0.0 -1.0 0.0
outer loop
vertex 47.1793597885355 -5.0 24.1890456712275
vertex 56.0 -5.0 56.0
vertex 47.5121865117387 -5.0 29.282884377177
endloop
endfacet
facet normal 0.0 -1.0 0.0
outer loop
vertex 47.5121865117387 -5.0 29.282884377177
vertex 56.0 -5.0 56.0
vertex 54.5114071483516 -5.0 51.3270704827334
endloop
endfacet
facet normal 0.0 -1.0 0.0
outer loop
vertex 47.5121865117387 -5.0 29.282884377177
vertex 54.5114071483516 -5.0 51.3270704827334
vertex 54.2516660498395 -5.0 50.7
endloop
endfacet
facet normal 0.0 -1.0 0.0
outer loop
vertex 47.5121865117387 -5.0 29.282884377177
vertex 54.2516660498395 -5.0 50.7
vertex 46.5152899695797 -5.0 34.2892966328885
endloop
endfacet
facet normal 0.0 -1.0 0.0
outer loop
vertex 46.5152899695797 -5.0 34.2892966328885
vertex 54.2516660498395 -5.0 50.7
vertex 53.838477631085 -5.0 50.161522368915
endloop
endfacet
facet normal 0.0 -1.0 0.0
outer loop
vertex 46.5152899695797 -5.0 34.2892966328885
vertex 53.838477631085 -5.0 50.161522368915
vertex 44.2566070139573 -5.0 38.8671037166228
endloop
endfacet
facet normal 0.0 -1.0 0.0
outer loop
vertex 44.2566070139573 -5.0 38.8671037166228
vertex 53.838477631085 -5.0 50.161522368915
vertex 53.3 -5.0 49.7483339501605
endloop
endfacet
facet normal 0.0 -1.0 0.0
outer loop
vertex 44.2566070139573 -5.0 38.8671037166228
vertex 53.3 -5.0 49.7483339501605
vertex 40.890063155647 -5.0 42.7043356408072
endloop
endfacet
facet normal 0.0 -1.0 0.0
outer loop
vertex 40.890063155647 -5.0 42.7043356408072
vertex 53.3 -5.0 49.7483339501605
vertex 52.6729295172666 -5.0 49.4885928516484
endloop
endfacet
facet normal 0.0 -1.0 0.0
outer loop
vertex 40.890063155647 -5.0 42.7043356408072
vertex 52.6729295172666 -5.0 49.4885928516484
vertex 36.6450827951159 -5.0 45.5394913911343
endloop
endfacet
facet normal 0.0 -1.0 0.0
outer loop
vertex 36.6450827951159 -5.0 45.5394913911343
vertex 52.6729295172666 -5.0 49.4885928516484
vertex 52.0 -5.0 49.4
endloop
endfacet
facet normal 0.0 -1.0 0.0
outer loop
vertex 36.6450827951159 -5.0 45.5394913911343
vertex 52.0 -5.0 49.4
vertex 31.8109543287725 -5.0 47.1793597885355
endloop
endfacet
facet normal 0.0 -1.0 0.0
outer loop
vertex 31.8109543287725 -5.0 47.1793597885355
vertex 52.0 -5.0 49.4
vertex 26.717115622823 -5.0 47.5121865117387
endloop
endfacet
facet normal 0.0 -1.0 0.0
outer loop
vertex 54.5114071483516 -5.0 51.3270704827334
vertex 56.0 -5.0 56.0
vertex 54.6 -5.0 52.0
endloop
endfacet
facet normal 0.0 -1.0 0.0
outer loop
vertex 54.6 -5.0 52.0
vertex 56.0 -5.0 56.0
vertex 54.5114071483516 -5.0 52.6729295172666
endloop
endfacet
facet normal 0.0 -1.0 0.0
outer loop
vertex 54.5114071483516 -5.0 52.6729295172666
vertex 56.0 -5.0 56.0
vertex 54.2516660498395 -5.0 53.3
endloop
endfacet
facet normal 0.0 -1.0 0.0
outer loop
vertex 54.2516660498395 -5.0 53.3
vertex 56.0 -5.0 56.0
vertex 53.838477631085 -5.0 53.838477631085
endloop
endfacet
facet normal 0.0 -1.0 0.0
outer loop
vertex 53.838477631085 -5.0 53.838477631085
vertex 56.0 -5.0 56.0
vertex 53.3 -5.0 54.2516660498395
endloop
endfacet
facet normal 0.0 -1.0 0.0
outer loop
vertex 53.3 -5.0 54.2516660498395
vertex 56.0 -5.0 56.0
vertex 52.6729295172666 -5.0 54.5114071483516
endloop
endfacet
facet normal 0.0 -1.0 0.0
outer loop
vertex 52.6729295172666 -5.0 54.5114071483516
vertex 56.0 -5.0 56.0
vertex 52.0 -5.0 54.6
endloop
endfacet
facet normal 0.0 -1.0 0.0
outer loop
vertex 52.0 -5.0 54.6
vertex 56.0 -5.0 56.0
vertex 4.0 -5.0 54.6
endloop
endfacet
facet normal 0.0 -1.0 0.0
outer loop
vertex 0.0 -5.0 0.0
vertex 1.4 -5.0 4.0
vertex 0.0 -5.0 56.0
endloop
endfacet
facet normal 0.0 -1.0 0.0
outer loop
vertex 1.4 -5.0 4.0
vertex 0.0 -5.0 0.0
vertex 1.48859285164842 -5.0 3.32707048273344
endloop
endfacet
facet normal 0.0 -1.0 0.0
outer loop
vertex 1.48859285164842 -5.0 3.32707048273344
vertex 0.0 -5.0 0.0
vertex 1.74833395016046 -5.0 2.7
endloop
endfacet
facet normal 0.0 -1.0 0.0
outer loop
vertex 1.74833395016046 -5.0 2.7
vertex 0.0 -5.0 0.0
vertex 2.16152236891498 -5.0 2.16152236891498
endloop
endfacet
facet normal 0.0 -1.0 0.0
outer loop
vertex 2.16152236891498 -5.0 2.16152236891498
vertex 0.0 -5.0 0.0
vertex 2.7 -5.0 1.74833395016046
endloop
endfacet
facet normal 0.0 -1.0 0.0
outer loop
vertex 2.7 -5.0 1.74833395016046
vertex 0.0 -5.0 0.0
vertex 3.32707048273345 -5.0 1.48859285164842
endloop
endfacet
facet normal 0.0 -1.0 0.0
outer loop
vertex 3.32707048273345 -5.0 1.48859285164842
vertex 0.0 -5.0 0.0
vertex 4.0 -5.0 1.4
endloop
endfacet
facet normal 0.0 -1.0 0.0
outer loop
vertex 4.0 -5.0 1.4
vertex 0.0 -5.0 0.0
vertex 52.0 -5.0 1.4
endloop
endfacet
facet normal 0.0 -1.0 0.0
outer loop
vertex 0.0 -5.0 56.0
vertex 1.4 -5.0 4.0
vertex 1.48859285164842 -5.0 4.67292951726655
endloop
endfacet
facet normal 0.0 -1.0 0.0
outer loop
vertex 0.0 -5.0 56.0
vertex 1.48859285164842 -5.0 4.67292951726655
vertex 1.74833395016046 -5.0 5.3
endloop
endfacet
facet normal 0.0 -1.0 0.0
outer loop
vertex 0.0 -5.0 56.0
vertex 1.74833395016046 -5.0 5.3
vertex 2.16152236891497 -5.0 5.83847763108502
endloop
endfacet
facet normal 0.0 -1.0 0.0
outer loop
vertex 0.0 -5.0 56.0
vertex 2.16152236891497 -5.0 5.83847763108502
vertex 2.7 -5.0 6.25166604983954
endloop
endfacet
facet normal 0.0 -1.0 0.0
outer loop
vertex 0.0 -5.0 56.0
vertex 2.7 -5.0 6.25166604983954
vertex 3.32707048273344 -5.0 6.51140714835158
endloop
endfacet
facet normal 0.0 -1.0 0.0
outer loop
vertex 0.0 -5.0 56.0
vertex 3.32707048273344 -5.0 6.51140714835158
vertex 4.0 -5.0 6.6
endloop
endfacet
facet normal 0.0 -1.0 0.0
outer loop
vertex 0.0 -5.0 56.0
vertex 4.0 -5.0 6.6
vertex 9.48471003042028 -5.0 21.7107033671115
endloop
endfacet
facet normal 0.0 -1.0 0.0
outer loop
vertex 9.48471003042028 -5.0 21.7107033671115
vertex 4.0 -5.0 6.6
vertex 11.7433929860427 -5.0 17.1328962833772
endloop
endfacet
facet normal 0.0 -1.0 0.0
outer loop
vertex 11.7433929860427 -5.0 17.1328962833772
vertex 4.0 -5.0 6.6
vertex 15.109936844353 -5.0 13.2956643591927
endloop
endfacet
facet normal 0.0 -1.0 0.0
outer loop
vertex 15.109936844353 -5.0 13.2956643591927
vertex 4.0 -5.0 6.6
vertex 19.3549172048841 -5.0 10.4605086088657
endloop
endfacet
facet normal 0.0 -1.0 0.0
outer loop
vertex 19.3549172048841 -5.0 10.4605086088657
vertex 4.0 -5.0 6.6
vertex 24.1890456712275 -5.0 8.8206402114645
endloop
endfacet
facet normal 0.0 -1.0 0.0
outer loop
vertex 24.1890456712275 -5.0 8.8206402114645
vertex 4.0 -5.0 6.6
vertex 52.0 -5.0 6.6
endloop
endfacet
facet normal 0.0 -1.0 0.0
outer loop
vertex 24.1890456712275 -5.0 8.8206402114645
vertex 52.0 -5.0 6.6
vertex 29.282884377177 -5.0 8.4878134882613
endloop
endfacet
facet normal 0.0 -1.0 0.0
outer loop
vertex 0.0 -5.0 56.0
vertex 9.48471003042028 -5.0 21.7107033671115
vertex 8.4878134882613 -5.0 26.717115622823
endloop
endfacet
facet normal 0.0 -1.0 0.0
outer loop
vertex 0.0 -5.0 56.0
vertex 8.4878134882613 -5.0 26.717115622823
vertex 1.48859285164842 -5.0 51.3270704827334
endloop
endfacet
facet normal 0.0 -1.0 0.0
outer loop
vertex 1.48859285164842 -5.0 51.3270704827334
vertex 8.4878134882613 -5.0 26.717115622823
vertex 8.8206402114645 -5.0 31.8109543287725
endloop
endfacet
facet normal 0.0 -1.0 0.0
outer loop
vertex 1.48859285164842 -5.0 51.3270704827334
vertex 8.8206402114645 -5.0 31.8109543287725
vertex 1.74833395016046 -5.0 50.7
endloop
endfacet
facet normal 0.0 -1.0 0.0
outer loop
vertex 1.74833395016046 -5.0 50.7
vertex 8.8206402114645 -5.0 31.8109543287725
vertex 10.4605086088657 -5.0 36.6450827951159
endloop
endfacet
facet normal 0.0 -1.0 0.0
outer loop
vertex 1.74833395016046 -5.0 50.7
vertex 10.4605086088657 -5.0 36.6450827951159
vertex 2.16152236891498 -5.0 50.161522368915
endloop
endfacet
facet normal 0.0 -1.0 0.0
outer loop
vertex 2.16152236891498 -5.0 50.161522368915
vertex 10.4605086088657 -5.0 36.6450827951159
vertex 13.2956643591928 -5.0 40.890063155647
endloop
endfacet
facet normal 0.0 -1.0 0.0
outer loop
vertex 2.16152236891498 -5.0 50.161522368915
vertex 13.2956643591928 -5.0 40.890063155647
vertex 2.7 -5.0 49.7483339501605
endloop
endfacet
facet normal 0.0 -1.0 0.0
outer loop
vertex 2.7 -5.0 49.7483339501605
vertex 13.2956643591928 -5.0 40.890063155647
vertex 3.32707048273345 -5.0 49.4885928516484
endloop
endfacet
facet normal 0.0 -1.0 0.0
outer loop
vertex 3.32707048273345 -5.0 49.4885928516484
vertex 13.2956643591928 -5.0 40.890063155647
vertex 17.1328962833772 -5.0 44.2566070139573
endloop
endfacet
facet normal 0.0 -1.0 0.0
outer loop
vertex 3.32707048273345 -5.0 49.4885928516484
vertex 17.1328962833772 -5.0 44.2566070139573
vertex 21.7107033671115 -5.0 46.5152899695797
endloop
endfacet
facet normal 0.0 -1.0 0.0
outer loop
vertex 3.32707048273345 -5.0 49.4885928516484
vertex 21.7107033671115 -5.0 46.5152899695797
vertex 4.0 -5.0 49.4
endloop
endfacet
facet normal 0.0 -1.0 0.0
outer loop
vertex 4.0 -5.0 49.4
vertex 21.7107033671115 -5.0 46.5152899695797
vertex 26.717115622823 -5.0 47.5121865117387
endloop
endfacet
facet normal 0.0 -1.0 0.0
outer loop
vertex 4.0 -5.0 49.4
vertex 26.717115622823 -5.0 47.5121865117387
vertex 52.0 -5.0 49.4
endloop
endfacet
facet normal 0.0 -1.0 0.0
outer loop
vertex 0.0 -5.0 56.0
vertex 1.48859285164842 -5.0 51.3270704827334
vertex 1.4 -5.0 52.0
endloop
endfacet
facet normal 0.0 -1.0 0.0
outer loop
vertex 0.0 -5.0 56.0
vertex 1.4 -5.0 52.0
vertex 1.48859285164842 -5.0 52.6729295172666
endloop
endfacet
facet normal 0.0 -1.0 0.0
outer loop
vertex 0.0 -5.0 56.0
vertex 1.48859285164842 -5.0 52.6729295172666
vertex 1.74833395016046 -5.0 53.3
endloop
endfacet
facet normal 0.0 -1.0 0.0
outer loop
vertex 0.0 -5.0 56.0
vertex 1.74833395016046 -5.0 53.3
vertex 2.16152236891498 -5.0 53.838477631085
endloop
endfacet
facet normal 0.0 -1.0 0.0
outer loop
vertex 0.0 -5.0 56.0
vertex 2.16152236891498 -5.0 53.838477631085
vertex 2.7 -5.0 54.2516660498395
endloop
endfacet
facet normal 0.0 -1.0 0.0
outer loop
vertex 0.0 -5.0 56.0
vertex 2.7 -5.0 54.2516660498395
vertex 3.32707048273344 -5.0 54.5114071483516
endloop
endfacet
facet normal 0.0 -1.0 0.0
outer loop
vertex 0.0 -5.0 56.0
vertex 3.32707048273344 -5.0 54.5114071483516
vertex 4.0 -5.0 54.6
endloop
endfacet
facet normal 0.0 -1.0 0.0
outer loop
vertex 0.0 -5.0 56.0
vertex 4.0 -5.0 54.6
vertex 56.0 -5.0 56.0
endloop
endfacet
facet normal 0.0 -1.0 0.0
outer loop
vertex 51.3270704827334 -5.0 49.4885928516484
vertex 4.0 -5.0 49.4
vertex 52.0 -5.0 49.4
endloop
endfacet
facet normal 0.0 -1.0 0.0
outer loop
vertex 4.0 -5.0 49.4
vertex 51.3270704827334 -5.0 49.4885928516484
vertex 4.67292951726655 -5.0 49.4885928516484
endloop
endfacet
facet normal 0.0 -1.0 0.0
outer loop
vertex 4.67292951726655 -5.0 49.4885928516484
vertex 51.3270704827334 -5.0 49.4885928516484
vertex 50.7 -5.0 49.7483339501605
endloop
endfacet
facet normal 0.0 -1.0 0.0
outer loop
vertex 4.67292951726655 -5.0 49.4885928516484
vertex 50.7 -5.0 49.7483339501605
vertex 5.3 -5.0 49.7483339501605
endloop
endfacet
facet normal 0.0 -1.0 0.0
outer loop
vertex 5.3 -5.0 49.7483339501605
vertex 50.7 -5.0 49.7483339501605
vertex 50.161522368915 -5.0 50.161522368915
endloop
endfacet
facet normal 0.0 -1.0 0.0
outer loop
vertex 5.3 -5.0 49.7483339501605
vertex 50.161522368915 -5.0 50.161522368915
vertex 5.83847763108502 -5.0 50.161522368915
endloop
endfacet
facet normal 0.0 -1.0 0.0
outer loop
vertex 5.83847763108502 -5.0 50.161522368915
vertex 50.161522368915 -5.0 50.161522368915
vertex 49.7483339501605 -5.0 50.7
endloop
endfacet
facet normal 0.0 -1.0 0.0
outer loop
vertex 5.83847763108502 -5.0 50.161522368915
vertex 49.7483339501605 -5.0 50.7
vertex 6.25166604983954 -5.0 50.7
endloop
endfacet
facet normal 0.0 -1.0 0.0
outer loop
vertex 6.25166604983954 -5.0 50.7
vertex 49.7483339501605 -5.0 50.7
vertex 49.4885928516484 -5.0 51.3270704827334
endloop
endfacet
facet normal 0.0 -1.0 0.0
outer loop
vertex 6.25166604983954 -5.0 50.7
vertex 49.4885928516484 -5.0 51.3270704827334
vertex 6.51140714835158 -5.0 51.3270704827334
endloop
endfacet
facet normal 0.0 -1.0 0.0
outer loop
vertex 6.51140714835158 -5.0 51.3270704827334
vertex 49.4885928516484 -5.0 51.3270704827334
vertex 49.4 -5.0 52.0
endloop
endfacet
facet normal 0.0 -1.0 0.0
outer loop
vertex 6.51140714835158 -5.0 51.3270704827334
vertex 49.4 -5.0 52.0
vertex 6.6 -5.0 52.0
endloop
endfacet
facet normal 0.0 -1.0 0.0
outer loop
vertex 6.6 -5.0 52.0
vertex 49.4 -5.0 52.0
vertex 49.4885928516484 -5.0 52.6729295172666
endloop
endfacet
facet normal 0.0 -1.0 0.0
outer loop
vertex 6.6 -5.0 52.0
vertex 49.4885928516484 -5.0 52.6729295172666
vertex 6.51140714835158 -5.0 52.6729295172666
endloop
endfacet
facet normal 0.0 -1.0 0.0
outer loop
vertex 6.51140714835158 -5.0 52.6729295172666
vertex 49.4885928516484 -5.0 52.6729295172666
vertex 49.7483339501605 -5.0 53.3
endloop
endfacet
facet normal 0.0 -1.0 0.0
outer loop
vertex 6.51140714835158 -5.0 52.6729295172666
vertex 49.7483339501605 -5.0 53.3
vertex 6.25166604983954 -5.0 53.3
endloop
endfacet
facet normal 0.0 -1.0 0.0
outer loop
vertex 6.25166604983954 -5.0 53.3
vertex 49.7483339501605 -5.0 53.3
vertex 50.161522368915 -5.0 53.838477631085
endloop
endfacet
facet normal 0.0 -1.0 0.0
outer loop
vertex 6.25166604983954 -5.0 53.3
vertex 50.161522368915 -5.0 53.838477631085
vertex 5.83847763108502 -5.0 53.838477631085
endloop
endfacet
facet normal 0.0 -1.0 0.0
outer loop
vertex 5.83847763108502 -5.0 53.838477631085
vertex 50.161522368915 -5.0 53.838477631085
vertex 50.7 -5.0 54.2516660498395
endloop
endfacet
facet normal 0.0 -1.0 0.0
outer loop
vertex 5.83847763108502 -5.0 53.838477631085
vertex 50.7 -5.0 54.2516660498395
vertex 5.3 -5.0 54.2516660498395
endloop
endfacet
facet normal 0.0 -1.0 0.0
outer loop
vertex 5.3 -5.0 54.2516660498395
vertex 50.7 -5.0 54.2516660498395
vertex 51.3270704827334 -5.0 54.5114071483516
endloop
endfacet
facet normal 0.0 -1.0 0.0
outer loop
vertex 5.3 -5.0 54.2516660498395
vertex 51.3270704827334 -5.0 54.5114071483516
vertex 4.67292951726655 -5.0 54.5114071483516
endloop
endfacet
facet normal 0.0 -1.0 0.0
outer loop
vertex 4.67292951726655 -5.0 54.5114071483516
vertex 51.3270704827334 -5.0 54.5114071483516
vertex 52.0 -5.0 54.6
endloop
endfacet
facet normal 0.0 -1.0 0.0
outer loop
vertex 4.67292951726655 -5.0 54.5114071483516
vertex 52.0 -5.0 54.6
vertex 4.0 -5.0 54.6
endloop
endfacet
facet normal 1.0 0.0 -0.0
outer loop
vertex 56.0 0.0 0.0
vertex 56.0 -5.0 56.0
vertex 56.0 -5.0 0.0
endloop
endfacet
facet normal 1.0 0.0 -0.0
outer loop
vertex 56.0 -5.0 56.0
vertex 56.0 0.0 0.0
vertex 56.0 0.0 56.0
endloop
endfacet
facet normal 0.0 0.0 1.0
outer loop
vertex 56.0 -5.0 56.0
vertex 0.0 0.0 56.0
vertex 0.0 -5.0 56.0
endloop
endfacet
facet normal 0.0 0.0 1.0
outer loop
vertex 0.0 0.0 56.0
vertex 56.0 -5.0 56.0
vertex 56.0 0.0 56.0
endloop
endfacet
facet normal -1.0 -0.0 -0.0
outer loop
vertex 0.0 0.0 56.0
vertex 0.0 -5.0 0.0
vertex 0.0 -5.0 56.0
endloop
endfacet
facet normal -1.0 -0.0 -0.0
outer loop
vertex 0.0 -5.0 0.0
vertex 0.0 0.0 56.0
vertex 0.0 0.0 0.0
endloop
endfacet
facet normal 0.0 0.0 -1.0
outer loop
vertex 56.0 0.0 0.0
vertex 0.0 -5.0 0.0
vertex 0.0 0.0 0.0
endloop
endfacet
facet normal 0.0 0.0 -1.0
outer loop
vertex 0.0 -5.0 0.0
vertex 56.0 0.0 0.0
vertex 56.0 -5.0 0.0
endloop
endfacet
facet normal 0.923879532511286 0.0 -0.382683432365091
outer loop
vertex 1.48859285164842 0.0 52.6729295172666
vertex 1.74833395016046 -5.0 53.3
vertex 1.48859285164842 -5.0 52.6729295172666
endloop
endfacet
facet normal 0.923879532511286 0.0 -0.382683432365091
outer loop
vertex 1.74833395016046 -5.0 53.3
vertex 1.48859285164842 0.0 52.6729295172666
vertex 1.74833395016046 0.0 53.3
endloop
endfacet
facet normal 0.793353340291235 0.0 -0.608761429008722
outer loop
vertex 1.74833395016046 0.0 53.3
vertex 2.16152236891498 -5.0 53.838477631085
vertex 1.74833395016046 -5.0 53.3
endloop
endfacet
facet normal 0.793353340291235 0.0 -0.608761429008722
outer loop
vertex 2.16152236891498 -5.0 53.838477631085
vertex 1.74833395016046 0.0 53.3
vertex 2.16152236891498 0.0 53.838477631085
endloop
endfacet
facet normal 0.608761429008725 0.0 -0.793353340291231
outer loop
vertex 2.7 0.0 54.2516660498395
vertex 2.16152236891498 -5.0 53.838477631085
vertex 2.16152236891498 0.0 53.838477631085
endloop
endfacet
facet normal 0.608761429008725 0.0 -0.793353340291231
outer loop
vertex 2.16152236891498 -5.0 53.838477631085
vertex 2.7 0.0 54.2516660498395
vertex 2.7 -5.0 54.2516660498395
endloop
endfacet
facet normal 0.382683432365085 0.0 -0.923879532511289
outer loop
vertex 3.32707048273344 0.0 54.5114071483516
vertex 2.7 -5.0 54.2516660498395
vertex 2.7 0.0 54.2516660498395
endloop
endfacet
facet normal 0.382683432365085 0.0 -0.923879532511289
outer loop
vertex 2.7 -5.0 54.2516660498395
vertex 3.32707048273344 0.0 54.5114071483516
vertex 3.32707048273344 -5.0 54.5114071483516
endloop
endfacet
facet normal 0.13052619222005 0.0 -0.991444861373811
outer loop
vertex 4.0 0.0 54.6
vertex 3.32707048273344 -5.0 54.5114071483516
vertex 3.32707048273344 0.0 54.5114071483516
endloop
endfacet
facet normal 0.13052619222005 0.0 -0.991444861373811
outer loop
vertex 3.32707048273344 -5.0 54.5114071483516
vertex 4.0 0.0 54.6
vertex 4.0 -5.0 54.6
endloop
endfacet
facet normal -0.13052619222005 -0.0 -0.99144486137381
outer loop
vertex 4.67292951726655 0.0 54.5114071483516
vertex 4.0 -5.0 54.6
vertex 4.0 0.0 54.6
endloop
endfacet
facet normal -0.13052619222005 -0.0 -0.99144486137381
outer loop
vertex 4.0 -5.0 54.6
vertex 4.67292951726655 0.0 54.5114071483516
vertex 4.67292951726655 -5.0 54.5114071483516
endloop
endfacet
facet normal -0.382683432365085 -0.0 -0.923879532511289
outer loop
vertex 5.3 0.0 54.2516660498395
vertex 4.67292951726655 -5.0 54.5114071483516
vertex 4.67292951726655 0.0 54.5114071483516
endloop
endfacet
facet normal -0.382683432365085 -0.0 -0.923879532511289
outer loop
vertex 4.67292951726655 -5.0 54.5114071483516
vertex 5.3 0.0 54.2516660498395
vertex 5.3 -5.0 54.2516660498395
endloop
endfacet
facet normal -0.608761429008724 -0.0 -0.793353340291233
outer loop
vertex 5.83847763108502 0.0 53.838477631085
vertex 5.3 -5.0 54.2516660498395
vertex 5.3 0.0 54.2516660498395
endloop
endfacet
facet normal -0.608761429008724 -0.0 -0.793353340291233
outer loop
vertex 5.3 -5.0 54.2516660498395
vertex 5.83847763108502 0.0 53.838477631085
vertex 5.83847763108502 -5.0 53.838477631085
endloop
endfacet
facet normal -0.793353340291234 -0.0 -0.608761429008722
outer loop
vertex 5.83847763108502 0.0 53.838477631085
vertex 6.25166604983954 -5.0 53.3
vertex 5.83847763108502 -5.0 53.838477631085
endloop
endfacet
facet normal -0.793353340291234 -0.0 -0.608761429008722
outer loop
vertex 6.25166604983954 -5.0 53.3
vertex 5.83847763108502 0.0 53.838477631085
vertex 6.25166604983954 0.0 53.3
endloop
endfacet
facet normal -0.923879532511286 -0.0 -0.382683432365092
outer loop
vertex 6.25166604983954 0.0 53.3
vertex 6.51140714835158 -5.0 52.6729295172666
vertex 6.25166604983954 -5.0 53.3
endloop
endfacet
facet normal -0.923879532511286 -0.0 -0.382683432365092
outer loop
vertex 6.51140714835158 -5.0 52.6729295172666
vertex 6.25166604983954 0.0 53.3
vertex 6.51140714835158 0.0 52.6729295172666
endloop
endfacet
facet normal -0.99144486137381 -0.0 -0.130526192220052
outer loop
vertex 6.51140714835158 0.0 52.6729295172666
vertex 6.6 -5.0 52.0
vertex 6.51140714835158 -5.0 52.6729295172666
endloop
endfacet
facet normal -0.99144486137381 -0.0 -0.130526192220052
outer loop
vertex 6.6 -5.0 52.0
vertex 6.51140714835158 0.0 52.6729295172666
vertex 6.6 0.0 52.0
endloop
endfacet
facet normal -0.99144486137381 0.0 0.130526192220052
outer loop
vertex 6.6 0.0 52.0
vertex 6.51140714835158 -5.0 51.3270704827334
vertex 6.6 -5.0 52.0
endloop
endfacet
facet normal -0.99144486137381 0.0 0.130526192220052
outer loop
vertex 6.51140714835158 -5.0 51.3270704827334
vertex 6.6 0.0 52.0
vertex 6.51140714835158 0.0 51.3270704827334
endloop
endfacet
facet normal -0.923879532511286 0.0 0.382683432365092
outer loop
vertex 6.51140714835158 0.0 51.3270704827334
vertex 6.25166604983954 -5.0 50.7
vertex 6.51140714835158 -5.0 51.3270704827334
endloop
endfacet
facet normal -0.923879532511286 0.0 0.382683432365092
outer loop
vertex 6.25166604983954 -5.0 50.7
vertex 6.51140714835158 0.0 51.3270704827334
vertex 6.25166604983954 0.0 50.7
endloop
endfacet
facet normal -0.793353340291238 0.0 0.608761429008717
outer loop
vertex 6.25166604983954 0.0 50.7
vertex 5.83847763108502 -5.0 50.161522368915
vertex 6.25166604983954 -5.0 50.7
endloop
endfacet
facet normal -0.793353340291238 0.0 0.608761429008717
outer loop
vertex 5.83847763108502 -5.0 50.161522368915
vertex 6.25166604983954 0.0 50.7
vertex 5.83847763108502 0.0 50.161522368915
endloop
endfacet
facet normal -0.60876142900872 0.0 0.793353340291236
outer loop
vertex 5.83847763108502 -5.0 50.161522368915
vertex 5.3 0.0 49.7483339501605
vertex 5.3 -5.0 49.7483339501605
endloop
endfacet
facet normal -0.60876142900872 0.0 0.793353340291236
outer loop
vertex 5.3 0.0 49.7483339501605
vertex 5.83847763108502 -5.0 50.161522368915
vertex 5.83847763108502 0.0 50.161522368915
endloop
endfacet
facet normal -0.382683432365092 0.0 0.923879532511286
outer loop
vertex 5.3 -5.0 49.7483339501605
vertex 4.67292951726655 0.0 49.4885928516484
vertex 4.67292951726655 -5.0 49.4885928516484
endloop
endfacet
facet normal -0.382683432365092 0.0 0.923879532511286
outer loop
vertex 4.67292951726655 0.0 49.4885928516484
vertex 5.3 -5.0 49.7483339501605
vertex 5.3 0.0 49.7483339501605
endloop
endfacet
facet normal -0.13052619222005 0.0 0.991444861373811
outer loop
vertex 4.67292951726655 -5.0 49.4885928516484
vertex 4.0 0.0 49.4
vertex 4.0 -5.0 49.4
endloop
endfacet
facet normal -0.13052619222005 0.0 0.991444861373811
outer loop
vertex 4.0 0.0 49.4
vertex 4.67292951726655 -5.0 49.4885928516484
vertex 4.67292951726655 0.0 49.4885928516484
endloop
endfacet
facet normal 0.13052619222005 0.0 0.99144486137381
outer loop
vertex 4.0 -5.0 49.4
vertex 3.32707048273345 0.0 49.4885928516484
vertex 3.32707048273345 -5.0 49.4885928516484
endloop
endfacet
facet normal 0.13052619222005 0.0 0.99144486137381
outer loop
vertex 3.32707048273345 0.0 49.4885928516484
vertex 4.0 -5.0 49.4
vertex 4.0 0.0 49.4
endloop
endfacet
facet normal 0.382683432365092 0.0 0.923879532511286
outer loop
vertex 3.32707048273345 -5.0 49.4885928516484
vertex 2.7 0.0 49.7483339501605
vertex 2.7 -5.0 49.7483339501605
endloop
endfacet
facet normal 0.382683432365092 0.0 0.923879532511286
outer loop
vertex 2.7 0.0 49.7483339501605
vertex 3.32707048273345 -5.0 49.4885928516484
vertex 3.32707048273345 0.0 49.4885928516484
endloop
endfacet
facet normal 0.60876142900872 0.0 0.793353340291236
outer loop
vertex 2.7 -5.0 49.7483339501605
vertex 2.16152236891498 0.0 50.161522368915
vertex 2.16152236891498 -5.0 50.161522368915
endloop
endfacet
facet normal 0.60876142900872 0.0 0.793353340291236
outer loop
vertex 2.16152236891498 0.0 50.161522368915
vertex 2.7 -5.0 49.7483339501605
vertex 2.7 0.0 49.7483339501605
endloop
endfacet
facet normal 0.793353340291234 0.0 0.608761429008722
outer loop
vertex 2.16152236891498 0.0 50.161522368915
vertex 1.74833395016046 -5.0 50.7
vertex 2.16152236891498 -5.0 50.161522368915
endloop
endfacet
facet normal 0.793353340291234 0.0 0.608761429008722
outer loop
vertex 1.74833395016046 -5.0 50.7
vertex 2.16152236891498 0.0 50.161522368915
vertex 1.74833395016046 0.0 50.7
endloop
endfacet
facet normal 0.923879532511287 0.0 0.382683432365089
outer loop
vertex 1.74833395016046 0.0 50.7
vertex 1.48859285164842 -5.0 51.3270704827334
vertex 1.74833395016046 -5.0 50.7
endloop
endfacet
facet normal 0.923879532511287 0.0 0.382683432365089
outer loop
vertex 1.48859285164842 -5.0 51.3270704827334
vertex 1.74833395016046 0.0 50.7
vertex 1.48859285164842 0.0 51.3270704827334
endloop
endfacet
facet normal 0.99144486137381 0.0 0.130526192220051
outer loop
vertex 1.48859285164842 0.0 51.3270704827334
vertex 1.4 -5.0 52.0
vertex 1.48859285164842 -5.0 51.3270704827334
endloop
endfacet
facet normal 0.99144486137381 0.0 0.130526192220051
outer loop
vertex 1.4 -5.0 52.0
vertex 1.48859285164842 0.0 51.3270704827334
vertex 1.4 0.0 52.0
endloop
endfacet
facet normal 0.99144486137381 0.0 -0.130526192220051
outer loop
vertex 1.4 0.0 52.0
vertex 1.48859285164842 -5.0 52.6729295172666
vertex 1.4 -5.0 52.0
endloop
endfacet
facet normal 0.99144486137381 0.0 -0.130526192220051
outer loop
vertex 1.48859285164842 -5.0 52.6729295172666
vertex 1.4 0.0 52.0
vertex 1.48859285164842 0.0 52.6729295172666
endloop
endfacet
facet normal -0.13052619222005 0.0 0.991444861373811
outer loop
vertex 52.6729295172666 -5.0 49.4885928516484
vertex 52.0 0.0 49.4
vertex 52.0 -5.0 49.4
endloop
endfacet
facet normal -0.13052619222005 0.0 0.991444861373811
outer loop
vertex 52.0 0.0 49.4
vertex 52.6729295172666 -5.0 49.4885928516484
vertex 52.6729295172666 0.0 49.4885928516484
endloop
endfacet
facet normal 0.13052619222005 0.0 0.991444861373811
outer loop
vertex 52.0 -5.0 49.4
vertex 51.3270704827334 0.0 49.4885928516484
vertex 51.3270704827334 -5.0 49.4885928516484
endloop
endfacet
facet normal 0.13052619222005 0.0 0.991444861373811
outer loop
vertex 51.3270704827334 0.0 49.4885928516484
vertex 52.0 -5.0 49.4
vertex 52.0 0.0 49.4
endloop
endfacet
facet normal 0.382683432365094 0.0 0.923879532511285
outer loop
vertex 51.3270704827334 -5.0 49.4885928516484
vertex 50.7 0.0 49.7483339501605
vertex 50.7 -5.0 49.7483339501605
endloop
endfacet
facet normal 0.382683432365094 0.0 0.923879532511285
outer loop
vertex 50.7 0.0 49.7483339501605
vertex 51.3270704827334 -5.0 49.4885928516484
vertex 51.3270704827334 0.0 49.4885928516484
endloop
endfacet
facet normal 0.608761429008717 0.0 0.793353340291238
outer loop
vertex 50.7 -5.0 49.7483339501605
vertex 50.161522368915 0.0 50.161522368915
vertex 50.161522368915 -5.0 50.161522368915
endloop
endfacet
facet normal 0.608761429008717 0.0 0.793353340291238
outer loop
vertex 50.161522368915 0.0 50.161522368915
vertex 50.7 -5.0 49.7483339501605
vertex 50.7 0.0 49.7483339501605
endloop
endfacet
facet normal 0.793353340291235 0.0 0.608761429008721
outer loop
vertex 50.161522368915 0.0 50.161522368915
vertex 49.7483339501605 -5.0 50.7
vertex 50.161522368915 -5.0 50.161522368915
endloop
endfacet
facet normal 0.793353340291235 0.0 0.608761429008721
outer loop
vertex 49.7483339501605 -5.0 50.7
vertex 50.161522368915 0.0 50.161522368915
vertex 49.7483339501605 0.0 50.7
endloop
endfacet
facet normal 0.923879532511287 0.0 0.382683432365091
outer loop
vertex 49.7483339501605 0.0 50.7
vertex 49.4885928516484 -5.0 51.3270704827334
vertex 49.7483339501605 -5.0 50.7
endloop
endfacet
facet normal 0.923879532511287 0.0 0.382683432365091
outer loop
vertex 49.4885928516484 -5.0 51.3270704827334
vertex 49.7483339501605 0.0 50.7
vertex 49.4885928516484 0.0 51.3270704827334
endloop
endfacet
facet normal 0.991444861373811 0.0 0.13052619222005
outer loop
vertex 49.4885928516484 0.0 51.3270704827334
vertex 49.4 -5.0 52.0
vertex 49.4885928516484 -5.0 51.3270704827334
endloop
endfacet
facet normal 0.991444861373811 0.0 0.13052619222005
outer loop
vertex 49.4 -5.0 52.0
vertex 49.4885928516484 0.0 51.3270704827334
vertex 49.4 0.0 52.0
endloop
endfacet
facet normal 0.991444861373811 0.0 -0.13052619222005
outer loop
vertex 49.4 0.0 52.0
vertex 49.4885928516484 -5.0 52.6729295172666
vertex 49.4 -5.0 52.0
endloop
endfacet
facet normal 0.991444861373811 0.0 -0.13052619222005
outer loop
vertex 49.4885928516484 -5.0 52.6729295172666
vertex 49.4 0.0 52.0
vertex 49.4885928516484 0.0 52.6729295172666
endloop
endfacet
facet normal 0.923879532511285 0.0 -0.382683432365094
outer loop
vertex 49.4885928516484 0.0 52.6729295172666
vertex 49.7483339501605 -5.0 53.3
vertex 49.4885928516484 -5.0 52.6729295172666
endloop
endfacet
facet normal 0.923879532511285 0.0 -0.382683432365094
outer loop
vertex 49.7483339501605 -5.0 53.3
vertex 49.4885928516484 0.0 52.6729295172666
vertex 49.7483339501605 0.0 53.3
endloop
endfacet
facet normal 0.793353340291235 0.0 -0.608761429008721
outer loop
vertex 49.7483339501605 0.0 53.3
vertex 50.161522368915 -5.0 53.838477631085
vertex 49.7483339501605 -5.0 53.3
endloop
endfacet
facet normal 0.793353340291235 0.0 -0.608761429008721
outer loop
vertex 50.161522368915 -5.0 53.838477631085
vertex 49.7483339501605 0.0 53.3
vertex 50.161522368915 0.0 53.838477631085
endloop
endfacet
facet normal 0.608761429008726 0.0 -0.793353340291231
outer loop
vertex 50.7 0.0 54.2516660498395
vertex 50.161522368915 -5.0 53.838477631085
vertex 50.161522368915 0.0 53.838477631085
endloop
endfacet
facet normal 0.608761429008726 0.0 -0.793353340291231
outer loop
vertex 50.161522368915 -5.0 53.838477631085
vertex 50.7 0.0 54.2516660498395
vertex 50.7 -5.0 54.2516660498395
endloop
endfacet
facet normal 0.382683432365084 0.0 -0.92387953251129
outer loop
vertex 51.3270704827334 0.0 54.5114071483516
vertex 50.7 -5.0 54.2516660498395
vertex 50.7 0.0 54.2516660498395
endloop
endfacet
facet normal 0.382683432365084 0.0 -0.92387953251129
outer loop
vertex 50.7 -5.0 54.2516660498395
vertex 51.3270704827334 0.0 54.5114071483516
vertex 51.3270704827334 -5.0 54.5114071483516
endloop
endfacet
facet normal 0.13052619222005 0.0 -0.991444861373811
outer loop
vertex 52.0 0.0 54.6
vertex 51.3270704827334 -5.0 54.5114071483516
vertex 51.3270704827334 0.0 54.5114071483516
endloop
endfacet
facet normal 0.13052619222005 0.0 -0.991444861373811
outer loop
vertex 51.3270704827334 -5.0 54.5114071483516
vertex 52.0 0.0 54.6
vertex 52.0 -5.0 54.6
endloop
endfacet
facet normal -0.13052619222005 -0.0 -0.991444861373811
outer loop
vertex 52.6729295172666 0.0 54.5114071483516
vertex 52.0 -5.0 54.6
vertex 52.0 0.0 54.6
endloop
endfacet
facet normal -0.13052619222005 -0.0 -0.991444861373811
outer loop
vertex 52.0 -5.0 54.6
vertex 52.6729295172666 0.0 54.5114071483516
vertex 52.6729295172666 -5.0 54.5114071483516
endloop
endfacet
facet normal -0.382683432365086 -0.0 -0.923879532511288
outer loop
vertex 53.3 0.0 54.2516660498395
vertex 52.6729295172666 -5.0 54.5114071483516
vertex 52.6729295172666 0.0 54.5114071483516
endloop
endfacet
facet normal -0.382683432365086 -0.0 -0.923879532511288
outer loop
vertex 52.6729295172666 -5.0 54.5114071483516
vertex 53.3 0.0 54.2516660498395
vertex 53.3 -5.0 54.2516660498395
endloop
endfacet
facet normal -0.608761429008726 -0.0 -0.793353340291231
outer loop
vertex 53.838477631085 0.0 53.838477631085
vertex 53.3 -5.0 54.2516660498395
vertex 53.3 0.0 54.2516660498395
endloop
endfacet
facet normal -0.608761429008726 -0.0 -0.793353340291231
outer loop
vertex 53.3 -5.0 54.2516660498395
vertex 53.838477631085 0.0 53.838477631085
vertex 53.838477631085 -5.0 53.838477631085
endloop
endfacet
facet normal -0.793353340291231 -0.0 -0.608761429008726
outer loop
vertex 53.838477631085 0.0 53.838477631085
vertex 54.2516660498395 -5.0 53.3
vertex 53.838477631085 -5.0 53.838477631085
endloop
endfacet
facet normal -0.793353340291231 -0.0 -0.608761429008726
outer loop
vertex 54.2516660498395 -5.0 53.3
vertex 53.838477631085 0.0 53.838477631085
vertex 54.2516660498395 0.0 53.3
endloop
endfacet
facet normal -0.923879532511288 -0.0 -0.382683432365086
outer loop
vertex 54.2516660498395 0.0 53.3
vertex 54.5114071483516 -5.0 52.6729295172666
vertex 54.2516660498395 -5.0 53.3
endloop
endfacet
facet normal -0.923879532511288 -0.0 -0.382683432365086
outer loop
vertex 54.5114071483516 -5.0 52.6729295172666
vertex 54.2516660498395 0.0 53.3
vertex 54.5114071483516 0.0 52.6729295172666
endloop
endfacet
facet normal -0.991444861373811 -0.0 -0.13052619222005
outer loop
vertex 54.5114071483516 0.0 52.6729295172666
vertex 54.6 -5.0 52.0
vertex 54.5114071483516 -5.0 52.6729295172666
endloop
endfacet
facet normal -0.991444861373811 -0.0 -0.13052619222005
outer loop
vertex 54.6 -5.0 52.0
vertex 54.5114071483516 0.0 52.6729295172666
vertex 54.6 0.0 52.0
endloop
endfacet
facet normal -0.991444861373811 0.0 0.13052619222005
outer loop
vertex 54.6 0.0 52.0
vertex 54.5114071483516 -5.0 51.3270704827334
vertex 54.6 -5.0 52.0
endloop
endfacet
facet normal -0.991444861373811 0.0 0.13052619222005
outer loop
vertex 54.5114071483516 -5.0 51.3270704827334
vertex 54.6 0.0 52.0
vertex 54.5114071483516 0.0 51.3270704827334
endloop
endfacet
facet normal -0.923879532511288 0.0 0.382683432365086
outer loop
vertex 54.5114071483516 0.0 51.3270704827334
vertex 54.2516660498395 -5.0 50.7
vertex 54.5114071483516 -5.0 51.3270704827334
endloop
endfacet
facet normal -0.923879532511288 0.0 0.382683432365086
outer loop
vertex 54.2516660498395 -5.0 50.7
vertex 54.5114071483516 0.0 51.3270704827334
vertex 54.2516660498395 0.0 50.7
endloop
endfacet
facet normal -0.793353340291234 0.0 0.608761429008722
outer loop
vertex 54.2516660498395 0.0 50.7
vertex 53.838477631085 -5.0 50.161522368915
vertex 54.2516660498395 -5.0 50.7
endloop
endfacet
facet normal -0.793353340291234 0.0 0.608761429008722
outer loop
vertex 53.838477631085 -5.0 50.161522368915
vertex 54.2516660498395 0.0 50.7
vertex 53.838477631085 0.0 50.161522368915
endloop
endfacet
facet normal -0.608761429008721 0.0 0.793353340291235
outer loop
vertex 53.838477631085 -5.0 50.161522368915
vertex 53.3 0.0 49.7483339501605
vertex 53.3 -5.0 49.7483339501605
endloop
endfacet
facet normal -0.608761429008721 0.0 0.793353340291235
outer loop
vertex 53.3 0.0 49.7483339501605
vertex 53.838477631085 -5.0 50.161522368915
vertex 53.838477631085 0.0 50.161522368915
endloop
endfacet
facet normal -0.382683432365094 0.0 0.923879532511285
outer loop
vertex 53.3 -5.0 49.7483339501605
vertex 52.6729295172666 0.0 49.4885928516484
vertex 52.6729295172666 -5.0 49.4885928516484
endloop
endfacet
facet normal -0.382683432365094 0.0 0.923879532511285
outer loop
vertex 52.6729295172666 0.0 49.4885928516484
vertex 53.3 -5.0 49.7483339501605
vertex 53.3 0.0 49.7483339501605
endloop
endfacet
facet normal 0.130526192220052 0.0 -0.99144486137381
outer loop
vertex 52.0 0.0 6.6
vertex 51.3270704827334 -5.0 6.51140714835158
vertex 51.3270704827334 0.0 6.51140714835158
endloop
endfacet
facet normal 0.130526192220052 0.0 -0.99144486137381
outer loop
vertex 51.3270704827334 -5.0 6.51140714835158
vertex 52.0 0.0 6.6
vertex 52.0 -5.0 6.6
endloop
endfacet
facet normal -0.130526192220052 -0.0 -0.99144486137381
outer loop
vertex 52.6729295172666 0.0 6.51140714835158
vertex 52.0 -5.0 6.6
vertex 52.0 0.0 6.6
endloop
endfacet
facet normal -0.130526192220052 -0.0 -0.99144486137381
outer loop
vertex 52.0 -5.0 6.6
vertex 52.6729295172666 0.0 6.51140714835158
vertex 52.6729295172666 -5.0 6.51140714835158
endloop
endfacet
facet normal -0.38268343236509 -0.0 -0.923879532511287
outer loop
vertex 53.3 0.0 6.25166604983954
vertex 52.6729295172666 -5.0 6.51140714835158
vertex 52.6729295172666 0.0 6.51140714835158
endloop
endfacet
facet normal -0.38268343236509 -0.0 -0.923879532511287
outer loop
vertex 52.6729295172666 -5.0 6.51140714835158
vertex 53.3 0.0 6.25166604983954
vertex 53.3 -5.0 6.25166604983954
endloop
endfacet
facet normal -0.608761429008722 -0.0 -0.793353340291234
outer loop
vertex 53.838477631085 0.0 5.83847763108502
vertex 53.3 -5.0 6.25166604983954
vertex 53.3 0.0 6.25166604983954
endloop
endfacet
facet normal -0.608761429008722 -0.0 -0.793353340291234
outer loop
vertex 53.3 -5.0 6.25166604983954
vertex 53.838477631085 0.0 5.83847763108502
vertex 53.838477631085 -5.0 5.83847763108502
endloop
endfacet
facet normal -0.793353340291232 -0.0 -0.608761429008725
outer loop
vertex 53.838477631085 0.0 5.83847763108502
vertex 54.2516660498395 -5.0 5.3
vertex 53.838477631085 -5.0 5.83847763108502
endloop
endfacet
facet normal -0.793353340291232 -0.0 -0.608761429008725
outer loop
vertex 54.2516660498395 -5.0 5.3
vertex 53.838477631085 0.0 5.83847763108502
vertex 54.2516660498395 0.0 5.3
endloop
endfacet
facet normal -0.923879532511289 -0.0 -0.382683432365085
outer loop
vertex 54.2516660498395 0.0 5.3
vertex 54.5114071483516 -5.0 4.67292951726655
vertex 54.2516660498395 -5.0 5.3
endloop
endfacet
facet normal -0.923879532511289 -0.0 -0.382683432365085
outer loop
vertex 54.5114071483516 -5.0 4.67292951726655
vertex 54.2516660498395 0.0 5.3
vertex 54.5114071483516 0.0 4.67292951726655
endloop
endfacet
facet normal -0.991444861373811 -0.0 -0.13052619222005
outer loop
vertex 54.5114071483516 0.0 4.67292951726655
vertex 54.6 -5.0 4.0
vertex 54.5114071483516 -5.0 4.67292951726655
endloop
endfacet
facet normal -0.991444861373811 -0.0 -0.13052619222005
outer loop
vertex 54.6 -5.0 4.0
vertex 54.5114071483516 0.0 4.67292951726655
vertex 54.6 0.0 4.0
endloop
endfacet
facet normal -0.99144486137381 0.0 0.13052619222005
outer loop
vertex 54.6 0.0 4.0
vertex 54.5114071483516 -5.0 3.32707048273345
vertex 54.6 -5.0 4.0
endloop
endfacet
facet normal -0.99144486137381 0.0 0.13052619222005
outer loop
vertex 54.5114071483516 -5.0 3.32707048273345
vertex 54.6 0.0 4.0
vertex 54.5114071483516 0.0 3.32707048273345
endloop
endfacet
facet normal -0.923879532511289 0.0 0.382683432365085
outer loop
vertex 54.5114071483516 0.0 3.32707048273345
vertex 54.2516660498395 -5.0 2.7
vertex 54.5114071483516 -5.0 3.32707048273345
endloop
endfacet
facet normal -0.923879532511289 0.0 0.382683432365085
outer loop
vertex 54.2516660498395 -5.0 2.7
vertex 54.5114071483516 0.0 3.32707048273345
vertex 54.2516660498395 0.0 2.7
endloop
endfacet
facet normal -0.793353340291232 0.0 0.608761429008725
outer loop
vertex 54.2516660498395 0.0 2.7
vertex 53.838477631085 -5.0 2.16152236891498
vertex 54.2516660498395 -5.0 2.7
endloop
endfacet
facet normal -0.793353340291232 0.0 0.608761429008725
outer loop
vertex 53.838477631085 -5.0 2.16152236891498
vertex 54.2516660498395 0.0 2.7
vertex 53.838477631085 0.0 2.16152236891498
endloop
endfacet
facet normal -0.608761429008722 0.0 0.793353340291234
outer loop
vertex 53.838477631085 -5.0 2.16152236891498
vertex 53.3 0.0 1.74833395016046
vertex 53.3 -5.0 1.74833395016046
endloop
endfacet
facet normal -0.608761429008722 0.0 0.793353340291234
outer loop
vertex 53.3 0.0 1.74833395016046
vertex 53.838477631085 -5.0 2.16152236891498
vertex 53.838477631085 0.0 2.16152236891498
endloop
endfacet
facet normal -0.382683432365092 0.0 0.923879532511286
outer loop
vertex 53.3 -5.0 1.74833395016046
vertex 52.6729295172666 0.0 1.48859285164842
vertex 52.6729295172666 -5.0 1.48859285164842
endloop
endfacet
facet normal -0.382683432365092 0.0 0.923879532511286
outer loop
vertex 52.6729295172666 0.0 1.48859285164842
vertex 53.3 -5.0 1.74833395016046
vertex 53.3 0.0 1.74833395016046
endloop
endfacet
facet normal -0.130526192220052 0.0 0.99144486137381
outer loop
vertex 52.6729295172666 -5.0 1.48859285164842
vertex 52.0 0.0 1.4
vertex 52.0 -5.0 1.4
endloop
endfacet
facet normal -0.130526192220052 0.0 0.99144486137381
outer loop
vertex 52.0 0.0 1.4
vertex 52.6729295172666 -5.0 1.48859285164842
vertex 52.6729295172666 0.0 1.48859285164842
endloop
endfacet
facet normal 0.130526192220051 0.0 0.99144486137381
outer loop
vertex 52.0 -5.0 1.4
vertex 51.3270704827334 0.0 1.48859285164842
vertex 51.3270704827334 -5.0 1.48859285164842
endloop
endfacet
facet normal 0.130526192220051 0.0 0.99144486137381
outer loop
vertex 51.3270704827334 0.0 1.48859285164842
vertex 52.0 -5.0 1.4
vertex 52.0 0.0 1.4
endloop
endfacet
facet normal 0.382683432365091 0.0 0.923879532511286
outer loop
vertex 51.3270704827334 -5.0 1.48859285164842
vertex 50.7 0.0 1.74833395016046
vertex 50.7 -5.0 1.74833395016046
endloop
endfacet
facet normal 0.382683432365091 0.0 0.923879532511286
outer loop
vertex 50.7 0.0 1.74833395016046
vertex 51.3270704827334 -5.0 1.48859285164842
vertex 51.3270704827334 0.0 1.48859285164842
endloop
endfacet
facet normal 0.608761429008719 0.0 0.793353340291237
outer loop
vertex 50.7 -5.0 1.74833395016046
vertex 50.161522368915 0.0 2.16152236891498
vertex 50.161522368915 -5.0 2.16152236891498
endloop
endfacet
facet normal 0.608761429008719 0.0 0.793353340291237
outer loop
vertex 50.161522368915 0.0 2.16152236891498
vertex 50.7 -5.0 1.74833395016046
vertex 50.7 0.0 1.74833395016046
endloop
endfacet
facet normal 0.793353340291235 0.0 0.60876142900872
outer loop
vertex 50.161522368915 0.0 2.16152236891498
vertex 49.7483339501605 -5.0 2.7
vertex 50.161522368915 -5.0 2.16152236891498
endloop
endfacet
facet normal 0.793353340291235 0.0 0.60876142900872
outer loop
vertex 49.7483339501605 -5.0 2.7
vertex 50.161522368915 0.0 2.16152236891498
vertex 49.7483339501605 0.0 2.7
endloop
endfacet
facet normal 0.923879532511286 0.0 0.382683432365092
outer loop
vertex 49.7483339501605 0.0 2.7
vertex 49.4885928516484 -5.0 3.32707048273344
vertex 49.7483339501605 -5.0 2.7
endloop
endfacet
facet normal 0.923879532511286 0.0 0.382683432365092
outer loop
vertex 49.4885928516484 -5.0 3.32707048273344
vertex 49.7483339501605 0.0 2.7
vertex 49.4885928516484 0.0 3.32707048273344
endloop
endfacet
facet normal 0.991444861373811 0.0 0.13052619222005
outer loop
vertex 49.4885928516484 0.0 3.32707048273344
vertex 49.4 -5.0 4.0
vertex 49.4885928516484 -5.0 3.32707048273344
endloop
endfacet
facet normal 0.991444861373811 0.0 0.13052619222005
outer loop
vertex 49.4 -5.0 4.0
vertex 49.4885928516484 0.0 3.32707048273344
vertex 49.4 0.0 4.0
endloop
endfacet
facet normal 0.991444861373811 0.0 -0.13052619222005
outer loop
vertex 49.4 0.0 4.0
vertex 49.4885928516484 -5.0 4.67292951726655
vertex 49.4 -5.0 4.0
endloop
endfacet
facet normal 0.991444861373811 0.0 -0.13052619222005
outer loop
vertex 49.4885928516484 -5.0 4.67292951726655
vertex 49.4 0.0 4.0
vertex 49.4885928516484 0.0 4.67292951726655
endloop
endfacet
facet normal 0.923879532511286 0.0 -0.382683432365092
outer loop
vertex 49.4885928516484 0.0 4.67292951726655
vertex 49.7483339501605 -5.0 5.3
vertex 49.4885928516484 -5.0 4.67292951726655
endloop
endfacet
facet normal 0.923879532511286 0.0 -0.382683432365092
outer loop
vertex 49.7483339501605 -5.0 5.3
vertex 49.4885928516484 0.0 4.67292951726655
vertex 49.7483339501605 0.0 5.3
endloop
endfacet
facet normal 0.793353340291236 0.0 -0.60876142900872
outer loop
vertex 49.7483339501605 0.0 5.3
vertex 50.161522368915 -5.0 5.83847763108502
vertex 49.7483339501605 -5.0 5.3
endloop
endfacet
facet normal 0.793353340291236 0.0 -0.60876142900872
outer loop
vertex 50.161522368915 -5.0 5.83847763108502
vertex 49.7483339501605 0.0 5.3
vertex 50.161522368915 0.0 5.83847763108502
endloop
endfacet
facet normal 0.608761429008722 0.0 -0.793353340291234
outer loop
vertex 50.7 0.0 6.25166604983954
vertex 50.161522368915 -5.0 5.83847763108502
vertex 50.161522368915 0.0 5.83847763108502
endloop
endfacet
facet normal 0.608761429008722 0.0 -0.793353340291234
outer loop
vertex 50.161522368915 -5.0 5.83847763108502
vertex 50.7 0.0 6.25166604983954
vertex 50.7 -5.0 6.25166604983954
endloop
endfacet
facet normal 0.382683432365089 0.0 -0.923879532511287
outer loop
vertex 51.3270704827334 0.0 6.51140714835158
vertex 50.7 -5.0 6.25166604983954
vertex 50.7 0.0 6.25166604983954
endloop
endfacet
facet normal 0.382683432365089 0.0 -0.923879532511287
outer loop
vertex 50.7 -5.0 6.25166604983954
vertex 51.3270704827334 0.0 6.51140714835158
vertex 51.3270704827334 -5.0 6.51140714835158
endloop
endfacet
facet normal 0.130526192220052 0.0 -0.99144486137381
outer loop
vertex 4.0 0.0 6.6
vertex 3.32707048273344 -5.0 6.51140714835158
vertex 3.32707048273344 0.0 6.51140714835158
endloop
endfacet
facet normal 0.130526192220052 0.0 -0.99144486137381
outer loop
vertex 3.32707048273344 -5.0 6.51140714835158
vertex 4.0 0.0 6.6
vertex 4.0 -5.0 6.6
endloop
endfacet
facet normal -0.13052619222005 -0.0 -0.99144486137381
outer loop
vertex 4.67292951726655 0.0 6.51140714835158
vertex 4.0 -5.0 6.6
vertex 4.0 0.0 6.6
endloop
endfacet
facet normal -0.13052619222005 -0.0 -0.99144486137381
outer loop
vertex 4.0 -5.0 6.6
vertex 4.67292951726655 0.0 6.51140714835158
vertex 4.67292951726655 -5.0 6.51140714835158
endloop
endfacet
facet normal -0.382683432365089 -0.0 -0.923879532511287
outer loop
vertex 5.3 0.0 6.25166604983954
vertex 4.67292951726655 -5.0 6.51140714835158
vertex 4.67292951726655 0.0 6.51140714835158
endloop
endfacet
facet normal -0.382683432365089 -0.0 -0.923879532511287
outer loop
vertex 4.67292951726655 -5.0 6.51140714835158
vertex 5.3 0.0 6.25166604983954
vertex 5.3 -5.0 6.25166604983954
endloop
endfacet
facet normal -0.608761429008721 -0.0 -0.793353340291235
outer loop
vertex 5.83847763108502 0.0 5.83847763108502
vertex 5.3 -5.0 6.25166604983954
vertex 5.3 0.0 6.25166604983954
endloop
endfacet
facet normal -0.608761429008721 -0.0 -0.793353340291235
outer loop
vertex 5.3 -5.0 6.25166604983954
vertex 5.83847763108502 0.0 5.83847763108502
vertex 5.83847763108502 -5.0 5.83847763108502
endloop
endfacet
facet normal -0.793353340291234 -0.0 -0.608761429008722
outer loop
vertex 5.83847763108502 0.0 5.83847763108502
vertex 6.25166604983954 -5.0 5.3
vertex 5.83847763108502 -5.0 5.83847763108502
endloop
endfacet
facet normal -0.793353340291234 -0.0 -0.608761429008722
outer loop
vertex 6.25166604983954 -5.0 5.3
vertex 5.83847763108502 0.0 5.83847763108502
vertex 6.25166604983954 0.0 5.3
endloop
endfacet
facet normal -0.923879532511286 -0.0 -0.382683432365091
outer loop
vertex 6.25166604983954 0.0 5.3
vertex 6.51140714835158 -5.0 4.67292951726656
vertex 6.25166604983954 -5.0 5.3
endloop
endfacet
facet normal -0.923879532511286 -0.0 -0.382683432365091
outer loop
vertex 6.51140714835158 -5.0 4.67292951726656
vertex 6.25166604983954 0.0 5.3
vertex 6.51140714835158 0.0 4.67292951726656
endloop
endfacet
facet normal -0.99144486137381 -0.0 -0.130526192220052
outer loop
vertex 6.51140714835158 0.0 4.67292951726656
vertex 6.6 -5.0 4.0
vertex 6.51140714835158 -5.0 4.67292951726656
endloop
endfacet
facet normal -0.99144486137381 -0.0 -0.130526192220052
outer loop
vertex 6.6 -5.0 4.0
vertex 6.51140714835158 0.0 4.67292951726656
vertex 6.6 0.0 4.0
endloop
endfacet
facet normal -0.991444861373811 0.0 0.13052619222005
outer loop
vertex 6.6 0.0 4.0
vertex 6.51140714835158 -5.0 3.32707048273345
vertex 6.6 -5.0 4.0
endloop
endfacet
facet normal -0.991444861373811 0.0 0.13052619222005
outer loop
vertex 6.51140714835158 -5.0 3.32707048273345
vertex 6.6 0.0 4.0
vertex 6.51140714835158 0.0 3.32707048273345
endloop
endfacet
facet normal -0.923879532511287 0.0 0.38268343236509
outer loop
vertex 6.51140714835158 0.0 3.32707048273345
vertex 6.25166604983954 -5.0 2.7
vertex 6.51140714835158 -5.0 3.32707048273345
endloop
endfacet
facet normal -0.923879532511287 0.0 0.38268343236509
outer loop
vertex 6.25166604983954 -5.0 2.7
vertex 6.51140714835158 0.0 3.32707048273345
vertex 6.25166604983954 0.0 2.7
endloop
endfacet
facet normal -0.793353340291235 0.0 0.608761429008721
outer loop
vertex 6.25166604983954 0.0 2.7
vertex 5.83847763108502 -5.0 2.16152236891498
vertex 6.25166604983954 -5.0 2.7
endloop
endfacet
facet normal -0.793353340291235 0.0 0.608761429008721
outer loop
vertex 5.83847763108502 -5.0 2.16152236891498
vertex 6.25166604983954 0.0 2.7
vertex 5.83847763108502 0.0 2.16152236891498
endloop
endfacet
facet normal -0.608761429008721 0.0 0.793353340291235
outer loop
vertex 5.83847763108502 -5.0 2.16152236891498
vertex 5.3 0.0 1.74833395016046
vertex 5.3 -5.0 1.74833395016046
endloop
endfacet
facet normal -0.608761429008721 0.0 0.793353340291235
outer loop
vertex 5.3 0.0 1.74833395016046
vertex 5.83847763108502 -5.0 2.16152236891498
vertex 5.83847763108502 0.0 2.16152236891498
endloop
endfacet
facet normal -0.38268343236509 0.0 0.923879532511287
outer loop
vertex 5.3 -5.0 1.74833395016046
vertex 4.67292951726655 0.0 1.48859285164842
vertex 4.67292951726655 -5.0 1.48859285164842
endloop
endfacet
facet normal -0.38268343236509 0.0 0.923879532511287
outer loop
vertex 4.67292951726655 0.0 1.48859285164842
vertex 5.3 -5.0 1.74833395016046
vertex 5.3 0.0 1.74833395016046
endloop
endfacet
facet normal -0.130526192220053 0.0 0.99144486137381
outer loop
vertex 4.67292951726655 -5.0 1.48859285164842
vertex 4.0 0.0 1.4
vertex 4.0 -5.0 1.4
endloop
endfacet
facet normal -0.130526192220053 0.0 0.99144486137381
outer loop
vertex 4.0 0.0 1.4
vertex 4.67292951726655 -5.0 1.48859285164842
vertex 4.67292951726655 0.0 1.48859285164842
endloop
endfacet
facet normal 0.130526192220051 0.0 0.99144486137381
outer loop
vertex 4.0 -5.0 1.4
vertex 3.32707048273345 0.0 1.48859285164842
vertex 3.32707048273345 -5.0 1.48859285164842
endloop
endfacet
facet normal 0.130526192220051 0.0 0.99144486137381
outer loop
vertex 3.32707048273345 0.0 1.48859285164842
vertex 4.0 -5.0 1.4
vertex 4.0 0.0 1.4
endloop
endfacet
facet normal 0.382683432365089 0.0 0.923879532511287
outer loop
vertex 3.32707048273345 -5.0 1.48859285164842
vertex 2.7 0.0 1.74833395016046
vertex 2.7 -5.0 1.74833395016046
endloop
endfacet
facet normal 0.382683432365089 0.0 0.923879532511287
outer loop
vertex 2.7 0.0 1.74833395016046
vertex 3.32707048273345 -5.0 1.48859285164842
vertex 3.32707048273345 0.0 1.48859285164842
endloop
endfacet
facet normal 0.608761429008721 0.0 0.793353340291235
outer loop
vertex 2.7 -5.0 1.74833395016046
vertex 2.16152236891498 0.0 2.16152236891498
vertex 2.16152236891498 -5.0 2.16152236891498
endloop
endfacet
facet normal 0.608761429008721 0.0 0.793353340291235
outer loop
vertex 2.16152236891498 0.0 2.16152236891498
vertex 2.7 -5.0 1.74833395016046
vertex 2.7 0.0 1.74833395016046
endloop
endfacet
facet normal 0.793353340291234 0.0 0.608761429008721
outer loop
vertex 2.16152236891498 0.0 2.16152236891498
vertex 1.74833395016046 -5.0 2.7
vertex 2.16152236891498 -5.0 2.16152236891498
endloop
endfacet
facet normal 0.793353340291234 0.0 0.608761429008721
outer loop
vertex 1.74833395016046 -5.0 2.7
vertex 2.16152236891498 0.0 2.16152236891498
vertex 1.74833395016046 0.0 2.7
endloop
endfacet
facet normal 0.923879532511287 0.0 0.38268343236509
outer loop
vertex 1.74833395016046 0.0 2.7
vertex 1.48859285164842 -5.0 3.32707048273344
vertex 1.74833395016046 -5.0 2.7
endloop
endfacet
facet normal 0.923879532511287 0.0 0.38268343236509
outer loop
vertex 1.48859285164842 -5.0 3.32707048273344
vertex 1.74833395016046 0.0 2.7
vertex 1.48859285164842 0.0 3.32707048273344
endloop
endfacet
facet normal 0.99144486137381 0.0 0.130526192220053
outer loop
vertex 1.48859285164842 0.0 3.32707048273344
vertex 1.4 -5.0 4.0
vertex 1.48859285164842 -5.0 3.32707048273344
endloop
endfacet
facet normal 0.99144486137381 0.0 0.130526192220053
outer loop
vertex 1.4 -5.0 4.0
vertex 1.48859285164842 0.0 3.32707048273344
vertex 1.4 0.0 4.0
endloop
endfacet
facet normal 0.99144486137381 0.0 -0.130526192220051
outer loop
vertex 1.4 0.0 4.0
vertex 1.48859285164842 -5.0 4.67292951726655
vertex 1.4 -5.0 4.0
endloop
endfacet
facet normal 0.99144486137381 0.0 -0.130526192220051
outer loop
vertex 1.48859285164842 -5.0 4.67292951726655
vertex 1.4 0.0 4.0
vertex 1.48859285164842 0.0 4.67292951726655
endloop
endfacet
facet normal 0.923879532511287 0.0 -0.382683432365089
outer loop
vertex 1.48859285164842 0.0 4.67292951726655
vertex 1.74833395016046 -5.0 5.3
vertex 1.48859285164842 -5.0 4.67292951726655
endloop
endfacet
facet normal 0.923879532511287 0.0 -0.382683432365089
outer loop
vertex 1.74833395016046 -5.0 5.3
vertex 1.48859285164842 0.0 4.67292951726655
vertex 1.74833395016046 0.0 5.3
endloop
endfacet
facet normal 0.793353340291236 0.0 -0.60876142900872
outer loop
vertex 1.74833395016046 0.0 5.3
vertex 2.16152236891497 -5.0 5.83847763108502
vertex 1.74833395016046 -5.0 5.3
endloop
endfacet
facet normal 0.793353340291236 0.0 -0.60876142900872
outer loop
vertex 2.16152236891497 -5.0 5.83847763108502
vertex 1.74833395016046 0.0 5.3
vertex 2.16152236891497 0.0 5.83847763108502
endloop
endfacet
facet normal 0.608761429008721 0.0 -0.793353340291235
outer loop
vertex 2.7 0.0 6.25166604983954
vertex 2.16152236891497 -5.0 5.83847763108502
vertex 2.16152236891497 0.0 5.83847763108502
endloop
endfacet
facet normal 0.608761429008721 0.0 -0.793353340291235
outer loop
vertex 2.16152236891497 -5.0 5.83847763108502
vertex 2.7 0.0 6.25166604983954
vertex 2.7 -5.0 6.25166604983954
endloop
endfacet
facet normal 0.382683432365091 0.0 -0.923879532511286
outer loop
vertex 3.32707048273344 0.0 6.51140714835158
vertex 2.7 -5.0 6.25166604983954
vertex 2.7 0.0 6.25166604983954
endloop
endfacet
facet normal 0.382683432365091 0.0 -0.923879532511286
outer loop
vertex 2.7 -5.0 6.25166604983954
vertex 3.32707048273344 0.0 6.51140714835158
vertex 3.32707048273344 -5.0 6.51140714835158
endloop
endfacet
facet normal 0.555401006211537 -4.51211263615572e-16 0.831582661134305
outer loop
vertex 15.109936844353 -5.0 13.2956643591927
vertex 19.3549172048841 0.0 10.4605086088657
vertex 15.109936844353 0.0 13.2956643591928
endloop
endfacet
facet normal 0.555401006211537 -4.51211263615572e-16 0.831582661134305
outer loop
vertex 19.3549172048841 0.0 10.4605086088657
vertex 15.109936844353 -5.0 13.2956643591927
vertex 19.3549172048841 -5.0 10.4605086088657
endloop
endfacet
facet normal 0.321246745568065 -7.20448688796229e-17 0.946995527160465
outer loop
vertex 24.1890456712275 -5.0 8.8206402114645
vertex 19.3549172048841 0.0 10.4605086088657
vertex 19.3549172048841 -5.0 10.4605086088657
endloop
endfacet
facet normal 0.321246745568065 -7.20448688796229e-17 0.946995527160465
outer loop
vertex 19.3549172048841 0.0 10.4605086088657
vertex 24.1890456712275 -5.0 8.8206402114645
vertex 24.1890456712275 0.0 8.82064021146451
endloop
endfacet
facet normal 0.0652000500994775 -2.20064678170298e-16 0.997872212994743
outer loop
vertex 24.1890456712275 -5.0 8.8206402114645
vertex 29.282884377177 0.0 8.4878134882613
vertex 24.1890456712275 0.0 8.82064021146451
endloop
endfacet
facet normal 0.0652000500994775 -2.20064678170298e-16 0.997872212994743
outer loop
vertex 29.282884377177 0.0 8.4878134882613
vertex 24.1890456712275 -5.0 8.8206402114645
vertex 29.282884377177 -5.0 8.4878134882613
endloop
endfacet
facet normal -0.195289921035213 5.43590838889475e-16 0.980745556575231
outer loop
vertex 29.282884377177 -5.0 8.4878134882613
vertex 34.2892966328885 0.0 9.48471003042027
vertex 29.282884377177 0.0 8.4878134882613
endloop
endfacet
facet normal -0.195289921035213 5.43590838889475e-16 0.980745556575231
outer loop
vertex 34.2892966328885 0.0 9.48471003042027
vertex 29.282884377177 -5.0 8.4878134882613
vertex 34.2892966328885 -5.0 9.48471003042028
endloop
endfacet
facet normal -0.442471206783205 -1.97391551660202e-17 0.896782711233783
outer loop
vertex 34.2892966328885 -5.0 9.48471003042028
vertex 38.8671037166228 0.0 11.7433929860427
vertex 34.2892966328885 0.0 9.48471003042027
endloop
endfacet
facet normal -0.442471206783205 -1.97391551660202e-17 0.896782711233783
outer loop
vertex 38.8671037166228 0.0 11.7433929860427
vertex 34.2892966328885 -5.0 9.48471003042028
vertex 38.8671037166228 -5.0 11.7433929860427
endloop
endfacet
facet normal -0.659498811007167 1.25211573427918e-17 0.751705606125253
outer loop
vertex 38.8671037166228 -5.0 11.7433929860427
vertex 42.7043356408073 0.0 15.109936844353
vertex 38.8671037166228 0.0 11.7433929860427
endloop
endfacet
facet normal -0.659498811007167 1.25211573427918e-17 0.751705606125253
outer loop
vertex 42.7043356408073 0.0 15.109936844353
vertex 38.8671037166228 -5.0 11.7433929860427
vertex 42.7043356408072 -5.0 15.109936844353
endloop
endfacet
facet normal -0.831582661134305 9.46715794141021e-16 0.555401006211536
outer loop
vertex 45.5394913911343 0.0 19.3549172048841
vertex 42.7043356408072 -5.0 15.109936844353
vertex 45.5394913911343 -5.0 19.3549172048841
endloop
endfacet
facet normal -0.831582661134305 9.46715794141021e-16 0.555401006211536
outer loop
vertex 42.7043356408072 -5.0 15.109936844353
vertex 45.5394913911343 0.0 19.3549172048841
vertex 42.7043356408073 0.0 15.109936844353
endloop
endfacet
facet normal -0.946995527160465 0.0 0.321246745568065
outer loop
vertex 47.1793597885355 0.0 24.1890456712275
vertex 45.5394913911343 -5.0 19.3549172048841
vertex 47.1793597885355 -5.0 24.1890456712275
endloop
endfacet
facet normal -0.946995527160465 0.0 0.321246745568065
outer loop
vertex 45.5394913911343 -5.0 19.3549172048841
vertex 47.1793597885355 0.0 24.1890456712275
vertex 45.5394913911343 0.0 19.3549172048841
endloop
endfacet
facet normal -0.997872212994743 -5.63980380890524e-16 0.0652000500994769
outer loop
vertex 47.5121865117387 0.0 29.282884377177
vertex 47.1793597885355 -5.0 24.1890456712275
vertex 47.5121865117387 -5.0 29.282884377177
endloop
endfacet
facet normal -0.997872212994743 -5.63980380890524e-16 0.0652000500994769
outer loop
vertex 47.1793597885355 -5.0 24.1890456712275
vertex 47.5121865117387 0.0 29.282884377177
vertex 47.1793597885355 0.0 24.1890456712275
endloop
endfacet
facet normal -0.980745556575232 -4.40647697184588e-16 -0.195289921035211
outer loop
vertex 46.5152899695797 0.0 34.2892966328885
vertex 47.5121865117387 -5.0 29.282884377177
vertex 46.5152899695797 -5.0 34.2892966328885
endloop
endfacet
facet normal -0.980745556575232 -4.40647697184588e-16 -0.195289921035211
outer loop
vertex 47.5121865117387 -5.0 29.282884377177
vertex 46.5152899695797 0.0 34.2892966328885
vertex 47.5121865117387 0.0 29.282884377177
endloop
endfacet
facet normal -0.896782711233782 -2.6439593103412e-16 -0.442471206783207
outer loop
vertex 44.2566070139573 0.0 38.8671037166228
vertex 46.5152899695797 -5.0 34.2892966328885
vertex 44.2566070139573 -5.0 38.8671037166228
endloop
endfacet
facet normal -0.896782711233782 -2.6439593103412e-16 -0.442471206783207
outer loop
vertex 46.5152899695797 -5.0 34.2892966328885
vertex 44.2566070139573 0.0 38.8671037166228
vertex 46.5152899695797 0.0 34.2892966328885
endloop
endfacet
facet normal -0.751705606125252 3.69047026366705e-16 -0.659498811007168
outer loop
vertex 40.890063155647 0.0 42.7043356408072
vertex 44.2566070139573 -5.0 38.8671037166228
vertex 40.890063155647 -5.0 42.7043356408072
endloop
endfacet
facet normal -0.751705606125252 3.69047026366705e-16 -0.659498811007168
outer loop
vertex 44.2566070139573 -5.0 38.8671037166228
vertex 40.890063155647 0.0 42.7043356408072
vertex 44.2566070139573 0.0 38.8671037166228
endloop
endfacet
facet normal -0.555401006211537 6.21590475562559e-16 -0.831582661134305
outer loop
vertex 36.6450827951159 0.0 45.5394913911343
vertex 40.890063155647 -5.0 42.7043356408072
vertex 36.6450827951159 -5.0 45.5394913911343
endloop
endfacet
facet normal -0.555401006211537 6.21590475562559e-16 -0.831582661134305
outer loop
vertex 40.890063155647 -5.0 42.7043356408072
vertex 36.6450827951159 0.0 45.5394913911343
vertex 40.890063155647 0.0 42.7043356408072
endloop
endfacet
facet normal -0.321246745568064 5.38068196973041e-16 -0.946995527160465
outer loop
vertex 31.8109543287725 0.0 47.1793597885355
vertex 36.6450827951159 -5.0 45.5394913911343
vertex 31.8109543287725 -5.0 47.1793597885355
endloop
endfacet
facet normal -0.321246745568064 5.38068196973041e-16 -0.946995527160465
outer loop
vertex 36.6450827951159 -5.0 45.5394913911343
vertex 31.8109543287725 0.0 47.1793597885355
vertex 36.6450827951159 0.0 45.5394913911343
endloop
endfacet
facet normal -0.0652000500994772 -3.80095442205062e-16 -0.997872212994743
outer loop
vertex 26.717115622823 0.0 47.5121865117387
vertex 31.8109543287725 -5.0 47.1793597885355
vertex 26.717115622823 -5.0 47.5121865117387
endloop
endfacet
facet normal -0.0652000500994772 -3.80095442205062e-16 -0.997872212994743
outer loop
vertex 31.8109543287725 -5.0 47.1793597885355
vertex 26.717115622823 0.0 47.5121865117387
vertex 31.8109543287725 0.0 47.1793597885355
endloop
endfacet
facet normal 0.195289921035212 -2.25338668499934e-16 -0.980745556575232
outer loop
vertex 26.717115622823 0.0 47.5121865117387
vertex 21.7107033671115 -5.0 46.5152899695797
vertex 21.7107033671115 0.0 46.5152899695797
endloop
endfacet
facet normal 0.195289921035212 -2.25338668499934e-16 -0.980745556575232
outer loop
vertex 21.7107033671115 -5.0 46.5152899695797
vertex 26.717115622823 0.0 47.5121865117387
vertex 26.717115622823 -5.0 47.5121865117387
endloop
endfacet
facet normal 0.442471206783207 1.05597210249034e-16 -0.896782711233782
outer loop
vertex 21.7107033671115 0.0 46.5152899695797
vertex 17.1328962833772 -5.0 44.2566070139573
vertex 17.1328962833772 0.0 44.2566070139573
endloop
endfacet
facet normal 0.442471206783207 1.05597210249034e-16 -0.896782711233782
outer loop
vertex 17.1328962833772 -5.0 44.2566070139573
vertex 21.7107033671115 0.0 46.5152899695797
vertex 21.7107033671115 -5.0 46.5152899695797
endloop
endfacet
facet normal 0.659498811007167 -3.63523443016063e-16 -0.751705606125252
outer loop
vertex 17.1328962833772 0.0 44.2566070139573
vertex 13.2956643591928 -5.0 40.890063155647
vertex 13.2956643591927 0.0 40.890063155647
endloop
endfacet
facet normal 0.659498811007167 -3.63523443016063e-16 -0.751705606125252
outer loop
vertex 13.2956643591928 -5.0 40.890063155647
vertex 17.1328962833772 0.0 44.2566070139573
vertex 17.1328962833772 -5.0 44.2566070139573
endloop
endfacet
facet normal 0.831582661134305 -4.86812403547003e-16 -0.555401006211537
outer loop
vertex 10.4605086088657 0.0 36.6450827951159
vertex 13.2956643591928 -5.0 40.890063155647
vertex 10.4605086088657 -5.0 36.6450827951159
endloop
endfacet
facet normal 0.831582661134305 -4.86812403547003e-16 -0.555401006211537
outer loop
vertex 13.2956643591928 -5.0 40.890063155647
vertex 10.4605086088657 0.0 36.6450827951159
vertex 13.2956643591927 0.0 40.890063155647
endloop
endfacet
facet normal 0.946995527160465 -8.01865861560392e-17 -0.321246745568065
outer loop
vertex 8.82064021146449 0.0 31.8109543287725
vertex 10.4605086088657 -5.0 36.6450827951159
vertex 8.8206402114645 -5.0 31.8109543287725
endloop
endfacet
facet normal 0.946995527160465 -8.01865861560392e-17 -0.321246745568065
outer loop
vertex 10.4605086088657 -5.0 36.6450827951159
vertex 8.82064021146449 0.0 31.8109543287725
vertex 10.4605086088657 0.0 36.6450827951159
endloop
endfacet
facet normal 0.997872212994743 -1.42391086264439e-16 -0.0652000500994769
outer loop
vertex 8.4878134882613 0.0 26.717115622823
vertex 8.8206402114645 -5.0 31.8109543287725
vertex 8.4878134882613 -5.0 26.717115622823
endloop
endfacet
facet normal 0.997872212994743 -1.42391086264439e-16 -0.0652000500994769
outer loop
vertex 8.8206402114645 -5.0 31.8109543287725
vertex 8.4878134882613 0.0 26.717115622823
vertex 8.82064021146449 0.0 31.8109543287725
endloop
endfacet
facet normal 0.980745556575232 -1.7288344273063e-16 0.195289921035212
outer loop
vertex 9.48471003042028 0.0 21.7107033671115
vertex 8.4878134882613 -5.0 26.717115622823
vertex 9.48471003042028 -5.0 21.7107033671115
endloop
endfacet
facet normal 0.980745556575232 -1.7288344273063e-16 0.195289921035212
outer loop
vertex 8.4878134882613 -5.0 26.717115622823
vertex 9.48471003042028 0.0 21.7107033671115
vertex 8.4878134882613 0.0 26.717115622823
endloop
endfacet
facet normal 0.896782711233782 1.15668240537814e-16 0.442471206783206
outer loop
vertex 11.7433929860427 0.0 17.1328962833772
vertex 9.48471003042028 -5.0 21.7107033671115
vertex 11.7433929860427 -5.0 17.1328962833772
endloop
endfacet
facet normal 0.896782711233782 1.15668240537814e-16 0.442471206783206
outer loop
vertex 9.48471003042028 -5.0 21.7107033671115
vertex 11.7433929860427 0.0 17.1328962833772
vertex 9.48471003042028 0.0 21.7107033671115
endloop
endfacet
facet normal 0.751705606125253 -1.02804336309152e-17 0.659498811007166
outer loop
vertex 15.109936844353 0.0 13.2956643591928
vertex 11.7433929860427 -5.0 17.1328962833772
vertex 15.109936844353 -5.0 13.2956643591927
endloop
endfacet
facet normal 0.751705606125253 -1.02804336309152e-17 0.659498811007166
outer loop
vertex 11.7433929860427 -5.0 17.1328962833772
vertex 15.109936844353 0.0 13.2956643591928
vertex 11.7433929860427 0.0 17.1328962833772
endloop
endfacet
endsolid nema23mount
